<?xml version="1.0" standalone="no"?>
<!DOCTYPE svg PUBLIC "-//W3C//DTD SVG 1.1//EN" "http://www.w3.org/Graphics/SVG/1.1/DTD/svg11.dtd" >
<!--
2013-9-30: Created.
-->
<svg>
<metadata>
Created by iconfont
</metadata>
<defs>

<font id="iconfont" horiz-adv-x="1024" >
  <font-face
    font-family="iconfont"
    font-weight="500"
    font-stretch="normal"
    units-per-em="1024"
    ascent="896"
    descent="-128"
  />
    <missing-glyph />
    
    <glyph glyph-name="jinrongzhongxin" unicode="&#58928;" d="M512 799C282.8 799 97 613.2 97 384s185.8-415 415-415 415 185.8 415 415S741.2 799 512 799z m160.41-401.91v-46.66H558.38v-41.55h114.03v-46.74H558.38v-108.69h-93.52V262.14H352.25v46.74h112.61v41.55H352.25v46.66h91.59L334.26 614.56h97.37l42.28-103.68c12.14-31.94 24.28-63.88 37.76-95.9h3.19c12.81 32.61 25.62 64.63 38.43 95.9l42.28 103.68h94.19l-110.2-217.47h92.85z"  horiz-adv-x="1024" />

    
    <glyph glyph-name="jiekuanxiangqing" unicode="&#58919;" d="M751.31 326.91L751.32 799H264.96l-0.04-472.09-162.08-0.02L512-31l409.16 357.89-169.85 0.02zM632.09 440.44v-33.14H549.6v-29.51h82.48v-33.14H549.6v-77.18h-67.66v77.18h-81.56v33.14h81.56V407.3h-81.56v33.14h66.27L387.41 594.8h70.44l30.58-73.55c8.8-22.7 17.61-45.4 27.34-68.1h2.32c9.27 23.15 18.54 45.85 27.8 68.1l30.58 73.55h68.12l-79.7-154.36h67.2z"  horiz-adv-x="1024" />

    
    <glyph glyph-name="huankuanxiangqing" unicode="&#58914;" d="M457.85 502.57h-70.44l79.24-154.36h-66.27v-33.14h81.56v-29.51h-81.56v-33.14h81.56v-77.18h67.66v77.18h82.48v33.14H549.6v29.51h82.48v33.14H564.9l79.7 154.36h-68.12l-30.58-73.55c-9.27-22.25-18.54-44.94-27.8-68.1h-2.32c-9.73 22.7-18.54 45.4-27.34 68.1l-30.59 73.55zM512 799l409.16-357.89-169.85-0.02 0.01-472.09H264.96l-0.04 472.09-162.08 0.02L512 799z"  horiz-adv-x="1024" />

    
    <glyph glyph-name="rili" unicode="&#58915;" d="M825.94 744.33h-71.85v20.09c0 19.09-15.49 34.58-34.58 34.58-19.09 0-34.58-15.49-34.58-34.58v-20.09H339.08v20.09c0 19.09-15.49 34.58-34.58 34.58s-34.58-15.49-34.58-34.58v-20.09h-71.85C142.25 744.33 97 699.08 97 643.26v-573.2C97 14.25 142.25-31 198.06-31h627.87C881.75-31 927 14.25 927 70.07v573.2c0 55.81-45.25 101.06-101.06 101.06z m-627.88-69.17h71.85v-54.33c0-19.09 15.49-34.58 34.58-34.58s34.58 15.49 34.58 34.58v54.33H684.9v-54.33c0-19.09 15.49-34.58 34.58-34.58 19.09 0 34.58 15.49 34.58 34.58v54.33h71.85c17.59 0 31.9-14.31 31.9-31.9v-122.8H166.17v122.8c0 17.59 14.3 31.9 31.89 31.9z m627.88-636.99H198.06c-17.59 0-31.9 14.31-31.9 31.9V451.3h691.67v-381.23c0-17.59-14.3-31.9-31.89-31.9z"  horiz-adv-x="1024" />

    
    <glyph glyph-name="chakan" unicode="&#58916;" d="M512 591.5c178.44 0 292.28-142.95 334.58-207.49C804.21 319.36 690.39 176.5 512 176.5c-178.44 0-292.28 142.95-334.58 207.49C219.79 448.64 333.61 591.5 512 591.5m0 69.17C235.33 660.67 97 384 97 384s138.33-276.67 415-276.67S927 384 927 384 788.67 660.67 512 660.67zM512 453.17c38.14 0 69.17-31.03 69.17-69.17s-31.03-69.17-69.17-69.17-69.17 31.03-69.17 69.17 31.03 69.17 69.17 69.17m0 69.16c-76.4 0-138.33-61.93-138.33-138.33S435.6 245.67 512 245.67 650.33 307.6 650.33 384 588.4 522.33 512 522.33z"  horiz-adv-x="1024" />

    
    <glyph glyph-name="daochu" unicode="&#58917;" d="M843.95-31h-663.9C134.24-31 97 6.99 97 53.67V247.05c0 20.02 15.93 36.27 35.57 36.27s35.57-16.24 35.57-36.27v-193.38c0-6.68 5.33-12.14 11.9-12.14h663.91c6.58 0 11.9 5.45 11.9 12.14V247.05c0 20.02 15.93 36.27 35.57 36.27s35.57-16.24 35.57-36.27v-193.38C927 6.99 889.76-31 843.95-31zM812.13 420.46c-9.12 0-18.2 3.54-25.15 10.63L512 711.45 237.02 431.08c-13.9-14.17-36.41-14.17-50.3 0-13.9 14.17-13.9 37.12 0 51.28l300.13 306.01c13.9 14.17 36.41 14.17 50.3 0l300.13-306.01c13.9-14.17 13.9-37.12 0-51.28-6.94-7.08-16.02-10.62-25.15-10.62zM512 178.67c-19.64 0-35.57 16.24-35.57 36.27V746.87c0 20.02 15.93 36.27 35.57 36.27s35.57-16.24 35.57-36.27v-531.93c0-20.02-15.93-36.27-35.57-36.27z"  horiz-adv-x="1024" />

    
    <glyph glyph-name="qianyue-xianxing" unicode="&#58918;" d="M476.94-31h-256.4c-66.19 0-120.05 53.45-120.05 119.15v591.7c0 65.7 53.86 119.15 120.05 119.15h422.57c65.7 0 119.15-53.29 119.15-118.79V529.7c0-19.09-15.49-34.58-34.58-34.58s-34.58 15.49-34.58 34.58V680.21c0 27.36-22.43 49.62-49.98 49.62H220.54c-28.05 0-50.88-22.43-50.88-49.98v-591.7c0-27.56 22.83-49.98 50.88-49.98h256.4c19.09 0 34.58-15.49 34.58-34.58 0.01-19.1-15.48-34.59-34.58-34.59z m153.36 0.18c-15.13 0-27.69 3.26-39.54 10.24-18.06 8.85-31.97 28.05-36.97 52.84l-6.98 40.26c-6.26 28.95 2.84 64.51 14.75 86.26L710.2 412.05c9.25 18.17 28.77 33.01 51.27 37.96 18.94 6.42 43.05 3.76 62.7-8.44l57.57-33.03c18.94-10.18 33.07-27.96 38.84-48.95 5.85-21.19 2.84-43.72-8.26-61.87L764.44 44.63c-15.9-25.73-42.85-47.91-69.08-57.21l-38.5-13.55c-9.57-3.18-18.3-4.69-26.56-4.69z m152.65 414.75c-1.08 0-2.14-0.18-3.15-0.52-6.24-1.58-8.4-3.51-8.98-4.66l-149.1-254.08c-5.65-10.33-9.16-28.98-7.02-38.95l7.09-40.73c0.56-2.84 1.76-4.62 2.12-4.93l6.39-1.71 42.04 14.3c11.28 4.01 25.73 16.14 32.83 27.63l147.81 252.96c1.46 2.39 1.69 5.29 0.95 7.97-0.56 2.05-1.89 4.84-5 6.46l-60.16 34.52c-1.99 1.2-3.95 1.74-5.82 1.74zM284.17 557.41c-17.46 0-31.66 15.17-31.66 33.85-0.08 9.2 3.49 18.2 9.82 24.6 5.92 5.94 13.66 9.23 21.84 9.23h304.01c17.46 0 31.66-15.17 31.66-33.83 0-18.68-14.2-33.85-31.66-33.85H284.17zM284.17 219.4c-17.46 0-31.66 15.17-31.66 33.85 0 18.66 14.2 33.83 31.66 33.83h218.55c17.46 0 31.66-15.17 31.66-33.83 0-18.68-14.2-33.85-31.66-33.85H284.17zM284.17 388.46c-17.46 0-31.66 15.17-31.66 33.83 0 18.68 14.2 33.85 31.66 33.85h304.01c17.46 0 31.66-15.17 31.66-33.85 0-18.66-14.2-33.83-31.66-33.83H284.17z"  horiz-adv-x="1024" />

    
    <glyph glyph-name="daikuandengji-xianxing" unicode="&#58920;" d="M857.69 141.36c-8.73 0-17.47 3.32-24.15 9.96-13.37 13.33-13.46 35.01-0.13 48.4 5.93 5.95 12.17 24 8.24 45.19-8.87 11.74-32.22 7.02-38.33 4.97l-123.8-28.99c-18.23-4.23-36.77 7.15-41.09 25.58-4.28 18.41 7.18 36.81 25.58 41.09l120.64 28.1c40.42 13.77 96.84 4.01 119.97-43.1l2.5-6.82c10.61-42.58 0.49-88.51-25.14-114.29-6.73-6.73-15.51-10.09-24.29-10.09zM566-31h-35.3c-89.22 0-232.68 43.41-374.89 90.63-23.66 3.83-43.1 25.71-43.1 50.36V282.32c0 26.92 23.58 50.52 50.4 50.52H620.8c44.61 0 77.01-16.85 88.91-46.26 13.9-34.63-8.29-59.3-29.77-83.16-46.66-51.72-156.16-52.3-257.41-46.17l-8.2 0.47c-8.73 0.49-15.87 1.09-17.69 1.25-18.81 1.63-32.89 18.21-31.33 37.01 1.65 18.85 18.23 32.33 36.81 31.24 2.01-0.18 8.29-0.71 16.04-1.14l8.51-0.51c141.85-8.47 187.67 7.38 201.08 22.22 4.59 5.08 9.27 10.29 12.84 14.53-4.37 0.96-11.1 2.07-19.79 2.07H181.18v-141.05c88.64-29.44 260.76-85.88 349.53-85.88h30.04c46.79 9.31 227.47 126.08 275.46 164.78 14.62 11.88 36.19 9.63 48.13-5.17 11.85-14.71 9.54-36.25-5.17-48.13-34.41-27.74-239.72-169.46-310.76-179.6L566-31zM484.85 374.13v52.84H430.3V467.5h54.55v31.35H430.3V539.4h39.17l-43.86 87.79h63.91l19.87-48.55c1.88-5.03 3.72-9.99 5.6-14.91l5.77 14.7 19.95 48.77h62.67l-44.18-87.79h39.77v-40.55h-54.93v-31.35h54.93v-40.53h-54.93v-52.84h-59.19zM679.2 237.96c-10.38 0-20.63 4.7-27.36 13.61-11.41 15.11-8.38 36.57 6.73 47.95 60.7 45.75 95.51 115.52 95.51 191.43 0 132.12-107.49 239.59-239.59 239.59S274.9 623.08 274.9 490.96c0-63.4 24.56-123.18 69.12-168.35 13.28-13.46 13.1-35.14-0.36-48.4-13.37-13.3-35.03-13.12-48.4 0.31-57.27 58.07-88.82 134.95-88.82 216.44C206.45 660.82 344.64 799 514.49 799s308.04-138.18 308.04-308.04c0-97.6-44.74-187.31-122.78-246.12a34.06 34.06 0 0 0-20.55-6.88z"  horiz-adv-x="1024" />

    
    <glyph glyph-name="shenhe" unicode="&#58921;" d="M853.58-31H170.42c-17.65 0-31.96 14.86-31.96 33.2 0 18.34 14.31 33.2 31.96 33.2h683.16c17.65 0 31.96-14.87 31.96-33.2 0-18.34-14.31-33.2-31.96-33.2z m-0.54 126.42H172.45c-17.6 0-31.88 14.26-31.91 31.88V240.22c0 55.83 45.34 101.2 101.13 101.2h128.92c-1.72 33.66-13.2 87.54-23.53 99.43a256.985 256.985 0 0 0-54.93 148.65 209.061 209.061 0 0 0 66.18 153.82c41.73 38.82 97.58 58.79 154.46 55.26a207.39 207.39 0 0 0 154.61-55.38 207.662 207.662 0 0 0 65.97-150.48 256.194 256.194 0 0 0-53.9-149.34c-11.08-13.04-22.61-66.74-24.57-100.35H783.8c55.73 0 101.08-45.38 101.08-101.27V127.3c-0.02-17.59-14.26-31.85-31.84-31.88z m-647.05 65.69h612.95V243.2c-0.03 20.48-16.61 37.08-37.08 37.11h-149.8a31.731 31.731 0 0 0-25.96 13.53c-8.79 12.56-14.26 27.4-15.8 42.82-0.14 1.35-0.2 2.7-0.17 4.05 0.57 19.98 9.29 108.41 38.96 142.95 23.79 30.77 37.7 68.96 39.19 109.33a142.892 142.892 0 0 1-46.5 103.23 142.658 142.658 0 0 1-106.96 36.93c-1.56-0.11-3.12-0.11-4.68 0a142.944 142.944 0 0 1-107.98-37.96 143.17 143.17 0 0 1-45.59-105.05c1.6-38.93 15.52-77.02 40.22-108.87 29.04-33.45 37.48-122.17 37.93-142.32 0-1.14 0-2.28-0.11-3.42-1.31-15.41-6.84-30.37-15.86-43.28a31.702 31.702 0 0 0-25.96-13.47H243.07c-20.49-0.03-37.08-16.66-37.08-37.16v-80.51z"  horiz-adv-x="1024" />

    
    <glyph glyph-name="qingkong-xianxing" unicode="&#58922;" d="M512 799C282.8 799 97 613.2 97 384s185.8-415 415-415 415 185.8 415 415S741.2 799 512 799z m0-760.83c-190.69 0-345.83 155.14-345.83 345.83S321.31 729.83 512 729.83 857.83 574.69 857.83 384 702.69 38.17 512 38.17zM601.67 522.58L512 432.91l-89.67 89.67-48.9-48.91L463.09 384l-89.66-89.66 48.9-48.91L512 335.09l89.67-89.66 48.9 48.91L560.91 384l89.66 89.67z"  horiz-adv-x="1024" />

    
    <glyph glyph-name="shangchuantupian" unicode="&#58923;" d="M729.22 492.91c-0.56 119.74-97.81 216.71-217.74 216.71s-217.17-96.97-217.74-216.8C183.38 482.33 97 389.39 97 276.21c0-120.3 97.53-217.74 217.74-217.74h164.05V309.19L355.96 186.27c-5.9-5.9-15.55-5.9-21.55 0l-25.58 25.58c-5.9 5.9-5.9 15.55 0 21.55L465.1 389.67l36.35 36.35c5.9 5.9 15.55 5.9 21.55 0l36.35-36.35L715.62 233.4c5.9-5.9 5.9-15.55 0-21.55l-25.67-25.58c-5.9-5.9-15.55-5.9-21.55 0L545.49 309.19v-250.81h163.77c120.3 0 217.74 97.53 217.74 217.74 0.09 113.64-86.85 206.77-197.78 216.79z"  horiz-adv-x="1024" />

    
    <glyph glyph-name="shenglvehao" unicode="&#58924;" d="M174.81 384m-77.81 0a77.81 77.81 0 1 1 155.62 0 77.81 77.81 0 1 1-155.62 0ZM512 384m-77.81 0a77.81 77.81 0 1 1 155.62 0 77.81 77.81 0 1 1-155.62 0ZM849.19 384m-77.81 0a77.81 77.81 0 1 1 155.62 0 77.81 77.81 0 1 1-155.62 0Z"  horiz-adv-x="1024" />

    
    <glyph glyph-name="chanpinzhongxin" unicode="&#58925;" d="M332.08-1.52c36.1-35.79 94.64-35.78 130.74 0s36.1 93.81 0 129.59c-36.1 35.79-94.64 35.78-130.74 0-36.1-35.78-36.1-93.8 0-129.59zM678.75-1.52c36.1-35.79 94.64-35.78 130.74 0 36.1 35.79 36.1 93.81 0 129.59-36.1 35.79-94.64 35.78-130.74 0-36.1-35.78-36.1-93.8 0-129.59zM788.06 368.63l133.65 264.92c7.74 15.62 6.95 33.6-2.13 48.06-9.1 14.47-25.01 23.1-42.57 23.1H298.87l-12.15 37.81c-9.96 31.19-41.15 53.83-74.16 53.83H97v-91.64h104.86L346.4 254.55c9.96-31.19 41.14-53.83 74.16-53.83h416.01v91.64h-405.3l-14.72 45.81h321.8c20.68 0 40.72 12.35 49.71 30.46z"  horiz-adv-x="1024" />

    
    <glyph glyph-name="jiesuanguanli" unicode="&#58926;" d="M742.56 799H281.44c-50.93 0-92.22-41.29-92.22-92.22v-645.56c0-50.93 41.29-92.22 92.22-92.22h461.11c50.93 0 92.22 41.29 92.22 92.22V706.78c0.01 50.93-41.29 92.22-92.21 92.22zM480.72 679.57l16.45-40.34c4.72-12.43 9.45-24.86 14.69-37.32h1.24c4.98 12.69 9.97 25.15 14.95 37.32l16.45 40.34h36.65l-42.87-84.63h36.13v-18.16h-44.37v-16.17h44.37v-18.19h-44.37v-42.3h-36.39v42.3h-43.82v18.19h43.82v16.17h-43.82v18.16h35.64l-42.65 84.63h37.9z m215.72-595.29H327.56c-12.74 0-23.06 10.31-23.06 23.06s10.31 23.06 23.06 23.06h368.89c12.74 0 23.06-10.31 23.06-23.06s-10.32-23.06-23.07-23.06z m0 138.33H327.56c-12.74 0-23.06 10.31-23.06 23.06s10.31 23.06 23.06 23.06h368.89c12.74 0 23.06-10.31 23.06-23.06s-10.32-23.06-23.07-23.06z m0 138.33H327.56c-12.74 0-23.06 10.31-23.06 23.06s10.31 23.06 23.06 23.06h368.89c12.74 0 23.06-10.31 23.06-23.06s-10.32-23.06-23.07-23.06z"  horiz-adv-x="1024" />

    
    <glyph glyph-name="daoru" unicode="&#58927;" d="M843.95-31h-663.9C134.24-31 97 6.99 97 53.67V247.05c0 20.02 15.93 36.27 35.57 36.27s35.57-16.24 35.57-36.27v-193.38c0-6.68 5.33-12.14 11.9-12.14h663.91c6.58 0 11.9 5.45 11.9 12.14V247.05c0 20.02 15.93 36.27 35.57 36.27s35.57-16.24 35.57-36.27v-193.38C927 6.99 889.76-31 843.95-31zM812.13 557.22c-9.12 0-18.2-3.54-25.15-10.63L512 266.22 237.02 546.59c-13.9 14.17-36.41 14.17-50.3 0-13.9-14.17-13.9-37.12 0-51.28L486.85 189.3c13.9-14.17 36.41-14.17 50.3 0l300.13 306.01c13.9 14.17 13.9 37.12 0 51.28-6.94 7.08-16.02 10.63-25.15 10.63zM512 799c-19.64 0-35.57-16.24-35.57-36.27V230.8c0-20.02 15.93-36.27 35.57-36.27s35.57 16.24 35.57 36.27V762.73C547.57 782.76 531.64 799 512 799z"  horiz-adv-x="1024" />

    
    <glyph glyph-name="tiqianhuankuandengji-xianxing" unicode="&#58929;" d="M427.76 382.43v47.48h-49.01v36.42h49.01V494.5h-49.01v36.43h35.2l-39.41 78.88h57.43l17.86-43.63c1.69-4.52 3.34-8.98 5.03-13.4l5.19 13.21 17.92 43.82h56.31l-39.7-78.88h35.74v-36.43h-49.36v-28.17h49.36v-36.42h-49.36v-47.48h-53.2zM705.03 58.84c-122.44 0-222.04 100.54-222.04 224.12 0 123.6 99.6 224.14 222.04 224.14C827.42 507.1 927 406.56 927 282.96c0-123.58-99.58-224.12-221.97-224.12z m0 380.98c-85.34 0-154.76-70.36-154.76-156.86 0-86.48 69.42-156.84 154.76-156.84 85.3 0 154.7 70.36 154.7 156.84 0 86.5-69.4 156.86-154.7 156.86zM689.53 210.62c-8.61 0-17.21 3.28-23.78 9.85l-46.47 46.45c-13.14 13.12-13.14 34.43 0 47.56 13.14 13.14 34.43 13.14 47.57 0l46.47-46.45c13.14-13.12 13.14-34.43 0-47.56a33.61 33.61 0 0 0-23.79-9.85zM689.53 210.62c-8.61 0-17.21 3.28-23.78 9.85-13.14 13.14-13.14 34.43 0 47.56l77.41 77.41c13.14 13.14 34.43 13.14 47.57 0s13.14-34.43 0-47.56l-77.41-77.41a33.61 33.61 0 0 0-23.79-9.85zM409.57 283.09H190.44C138.91 283.09 97 325 97 376.53V615.71c0 51.53 41.91 93.44 93.44 93.44h538.19c51.53 0 93.44-41.91 93.44-93.44v-50.87c0-18.57-15.07-33.64-33.64-33.64s-33.64 15.07-33.64 33.64v50.87c0 14.43-11.74 26.17-26.17 26.17H190.44c-14.43 0-26.17-11.74-26.17-26.17v-239.18c0-14.43 11.74-26.17 26.17-26.17h219.12c18.57 0 33.64-15.07 33.64-33.64s-15.06-33.63-33.63-33.63z"  horiz-adv-x="1024" />

    
    <glyph glyph-name="shoukuandengji-xianxing" unicode="&#58930;" d="M490.93 306.86c-135.85 0-246.36 110.37-246.36 246.06S355.08 798.98 490.93 798.98 737.29 688.6 737.29 552.92 626.77 306.86 490.93 306.86z m0 420.97c-96.62 0-175.22-78.46-175.22-174.92S394.31 378 490.93 378s175.22 78.46 175.22 174.92-78.61 174.91-175.22 174.91zM828.62-30.98h-633.2c-54.28 0-98.42 44.09-98.42 98.28V447.06c0 54.21 44.14 98.31 98.42 98.31 19.64 0 35.57-15.93 35.57-35.57s-15.93-35.57-35.57-35.57c-15.05 0-27.28-12.18-27.28-27.16v-379.75c0-14.71 12.51-27.14 27.28-27.14h633.2c15.01 0 27.23 12.18 27.23 27.14V447.06c0 14.98-12.23 27.16-27.23 27.16H786.8c-19.64 0-35.57 15.93-35.57 35.57s15.93 35.57 35.57 35.57h41.82c54.24 0 98.38-44.09 98.38-98.31V67.3c0-54.18-44.14-98.28-98.38-98.28zM641.65 173h-52.72c-11.78 0-21.06 9.27-21.06 21.04v23.19h73.79V173zM567.86 276.16h73.79v-37.9h-73.79zM662.71 217.18h63.23V173h-63.23zM662.71 276.16h63.23v-37.9h-63.23zM662.71 341.42h63.23v-44.22h-63.23zM820.8 194.04c0-11.76-9.24-21.04-21.06-21.04h-52.72v44.22h73.79v-23.18zM747.01 276.16h73.79v-37.9h-73.79zM820.8 297.2h-73.79v44.22h52.72c11.82 0 21.06-9.27 21.06-21.08v-23.14zM463.53 436.03v48.82h-50.39v37.44h50.39v28.96h-50.39v37.46h36.19l-40.52 81.1h59.04l18.36-44.85c1.73-4.65 3.44-9.23 5.17-13.78l5.33 13.58 18.43 45.05h57.9l-40.81-81.1h36.74v-37.46h-50.75v-28.96h50.75v-37.44h-50.75v-48.82h-54.69z"  horiz-adv-x="1024" />

    
    <glyph glyph-name="shangjiantou-xianxing" unicode="&#58931;" d="M512 504.97L160.91 153.9 97 217.81l383.05 383.05c8.54 8.54 19.89 13.24 31.95 13.24 12.07 0 23.42-4.7 31.95-13.24L927 217.81l-63.91-63.91L512 504.97z"  horiz-adv-x="1024" />

    
    <glyph glyph-name="farenrenzheng-xianxing" unicode="&#58932;" d="M222.11 407.96h114.12v-41.23H222.11zM222.11 291.16h114.12v-41.23H222.11zM481.07 103.58H208.68V516.8h217.66v-278.13c0-18.55 15.03-33.6 33.6-33.65h0.04c18.53 0 33.56 14.98 33.65 33.52l1.58 423.35 265.99-61.4v-40.53c0-18.58 15.07-33.65 33.65-33.65s33.65 15.07 33.65 33.65v48.15c0 26.55-18.01 49.6-44.3 56.15l-284.52 65.68c-17.35 4.43-35.44 0.55-49.51-10.47-14.11-11-22.21-27.6-22.21-45.37l-0.35-89.99H199.09c-31.81 0-57.7-25.89-57.7-57.7v-422.82h-10.73c-18.58 0-33.65-15.07-33.65-33.65s15.07-33.65 33.65-33.65h350.42c18.58 0 33.65 15.07 33.65 33.65s-15.09 33.64-33.66 33.64zM725.94 463.02c-110.89 0-201.15-91.07-201.15-202.99s90.26-202.99 201.15-202.99c110.85 0 201.06 91.07 201.06 202.99s-90.21 202.99-201.06 202.99z m0-338.68c-73.83 0-133.85 60.88-133.85 135.69s60.02 135.69 133.85 135.69c73.74 0 133.76-60.88 133.76-135.69s-60.02-135.69-133.76-135.69zM757.18 318.24l-45.05-45.05-17.52 17.51c-13.14 13.14-34.44 13.14-47.58 0s-13.14-34.46 0-47.58l41.32-41.29c6.57-6.57 15.16-9.86 23.79-9.86s17.22 3.29 23.79 9.86l68.83 68.83c13.14 13.14 13.14 34.44 0 47.58s-34.44 13.14-47.58 0z"  horiz-adv-x="1024" />

    
    <glyph glyph-name="shoukuandengji1" unicode="&#58933;" d="M437.41 384.6c123.32 0 223.74 100.23 223.74 223.44S560.73 831.48 437.41 831.48c-123.42 0-223.79-100.23-223.79-223.44S313.99 384.6 437.41 384.6z m-47.75 367.58l25.14-61.65c7.22-18.99 14.44-37.99 22.45-57.03h1.89c7.62 19.39 15.23 38.43 22.85 57.03l25.14 61.65h56.01l-65.52-129.32h55.21v-27.74h-67.81v-24.71h67.81v-27.79h-67.81v-64.64h-55.61v64.64h-66.96V570.4h66.96v24.71h-66.96v27.74h54.47l-65.17 129.32h57.91zM885.42 532.36H699.97C667.06 418.4 562.11 334.92 437.4 334.92S207.63 418.4 174.78 532.36h-36.14c-40.77 0-74.13-33.21-74.13-73.98V10.5c0-40.67 33.36-73.98 74.13-73.98h746.79c40.77 0 74.08 33.31 74.08 73.98V458.38c-0.01 40.77-33.32 73.98-74.09 73.98zM698.47 135.15h-62.18c-13.89 0-24.84 10.94-24.84 24.81V187.3h87.03v-52.15z m0 76.96h-87.03v44.7h87.03v-44.7z m0 69.51h-87.03v27.3c0 13.92 10.95 24.86 24.84 24.86h62.18v-52.16z m99.43-146.47h-74.58v52.11h74.58v-52.11z m0 76.96h-74.58v44.7h74.58v-44.7z m0 69.51h-74.58v52.16h74.58v-52.16z m111.86-121.66c0-13.87-10.9-24.81-24.84-24.81h-62.18V187.3h87.03v-27.34z m0 52.15h-87.03v44.7h87.03v-44.7z m0 69.51h-87.03v52.16h62.18c13.94 0 24.84-10.94 24.84-24.86v-27.3z"  horiz-adv-x="1024" />

    
    <glyph glyph-name="qianyue" unicode="&#58934;" d="M568.13 151.23l179.16 317.2V707.14c0 50.74-41.32 91.86-92.26 91.86H194.05c-51.53 0-93.25-41.22-93.25-92.26v-645.49c0-50.93 41.82-92.26 93.25-92.26h364.86l-5.15 29.43c-2.97 13.58-13.28 50.93-9.91 85.81 2.77 29.25 18.53 56.5 24.28 67zM261.43 591.6H593.1c11.49 0 20.71-10.31 20.71-23.09s-9.31-23.09-20.71-23.09H261.43c-11.49 0-20.71 10.31-20.71 23.09-0.09 12.78 9.22 23.09 20.71 23.09z m238.42-414.9H261.43c-11.49 0-20.71 10.31-20.71 23.09s9.31 23.09 20.71 23.09h238.42c11.49 0 20.71-10.31 20.71-23.09s-9.31-23.09-20.71-23.09zM261.43 361.11c-11.49 0-20.71 10.31-20.71 23.09s9.31 23.09 20.71 23.09H593.1c11.49 0 20.71-10.31 20.71-23.09s-9.31-23.09-20.71-23.09H261.43z m635.68 16.65l-64.41 36.96c-11.99 7.43-26.95 8.92-40.43 4.46-13.48-2.97-25.47-11.89-31.51-23.68L599.14 120.22c-10.5-19.22-16.45-48.85-11.99-69.56l7.43-42.91c2.97-14.76 10.5-26.66 22.49-32.6 7.53-4.46 14.96-5.95 23.98-5.95 6.04 0 11.99 1.49 16.45 2.97l41.92 14.76c21.01 7.43 43.5 26.66 55.39 45.88l161.72 276.77c13.58 22.2 6.05 54.8-19.42 68.18z"  horiz-adv-x="1024" />

    
    <glyph glyph-name="qingkong" unicode="&#58935;" d="M512 799C282.8 799 97 613.2 97 384s185.8-415 415-415 415 185.8 415 415S741.2 799 512 799z m171.18-537.27l-48.91-48.91L512 335.09 389.73 212.82l-48.91 48.91L463.09 384 340.82 506.27l48.91 48.91L512 432.91l122.27 122.27 48.91-48.91L560.91 384l122.27-122.27z"  horiz-adv-x="1024" />

    
    <glyph glyph-name="xiajiantou-xianxing" unicode="&#58936;" d="M512 153.9c-12.07 0-23.42 4.7-31.95 13.24L97 550.19l63.91 63.91L512 263.03 863.09 614.1 927 550.19 543.95 167.14c-8.53-8.53-19.88-13.24-31.95-13.24z"  horiz-adv-x="1024" />

    
    <glyph glyph-name="shijian" unicode="&#58937;" d="M512-31C283.15-31 97 155.17 97 384S283.15 799 512 799s415-186.17 415-415-186.15-415-415-415z m0 758.86c-189.62 0-343.86-154.26-343.86-343.86S322.38 40.14 512 40.14 855.86 194.4 855.86 384 701.62 727.86 512 727.86zM512 348.43c-19.64 0-35.57 15.93-35.57 35.57V573.71c0 19.64 15.93 35.57 35.57 35.57s35.57-15.93 35.57-35.57V384c0-19.64-15.93-35.57-35.57-35.57zM701.71 348.43H512c-19.64 0-35.57 15.93-35.57 35.57s15.93 35.57 35.57 35.57h189.71c19.64 0 35.57-15.93 35.57-35.57 0.01-19.64-15.93-35.57-35.57-35.57z"  horiz-adv-x="1024" />

    
    <glyph glyph-name="xiajiantou" unicode="&#58938;" d="M476.26 171.79L106.14 556.43c-19.85 20.63-5.23 54.99 23.4 54.99h764.93c28.63 0 43.25-34.36 23.4-54.99L547.74 171.79c-19.51-20.28-51.97-20.28-71.48 0z"  horiz-adv-x="1024" />

    
    <glyph glyph-name="zuojiantou" unicode="&#58939;" d="M299.79 348.26l384.65-370.13c20.63-19.85 54.99-5.23 54.99 23.4V766.46c0 28.63-34.36 43.25-54.99 23.4L299.79 419.74c-20.28-19.51-20.28-51.97 0-71.48z"  horiz-adv-x="1024" />

    
    <glyph glyph-name="youjiantou-xianxing" unicode="&#58940;" d="M281.92 32.91L632.99 384 281.92 735.09 345.83 799l383.05-383.05c17.61-17.61 17.61-46.3 0-63.91L345.83-31l-63.91 63.91z"  horiz-adv-x="1024" />

    
    <glyph glyph-name="toubaodengji1" unicode="&#58941;" d="M468.34 183.56c0 137.33 111.28 248.61 248.61 248.61 46.59 0 89.6-13.57 126.89-35.9 0.6 10.14 1.24 20.29 1.24 30.48v214.1a47.94 47.94 0 0 1-28.49 43.86L495.79 827.36a47.947 47.947 0 0 1-38.98 0L135.95 684.71c-17.3-7.71-28.44-24.86-28.44-43.86v-214.1c0-223.3 151.6-431.79 356.51-488.57a45.903 45.903 0 0 1 24.61 0c32.17 8.9 62.85 21.93 91.99 37.79-67.53 44.45-112.28 120.67-112.28 207.59zM716.96 382.46c-110.23 0-199.54-89.05-199.54-198.89s89.3-198.89 199.54-198.89c110.18 0 199.54 89.05 199.54 198.89s-89.36 198.89-199.54 198.89z m119.73-154.88L713.43 104.32c-9.7-9.7-25.51-9.7-35.2 0l-70.46 70.46c-9.7 9.7-9.7 25.51 0 35.2 9.75 9.75 25.51 9.75 35.2 0l52.85-52.85 105.66 105.66c9.75 9.75 25.51 9.75 35.2 0 9.76-9.71 9.76-25.47 0.01-35.21z"  horiz-adv-x="1024" />

    
    <glyph glyph-name="xinzeng" unicode="&#58942;" d="M892.42 418.58H546.58V764.42C546.58 783.52 531.1 799 512 799s-34.58-15.48-34.58-34.58v-345.83H131.58C112.48 418.58 97 403.1 97 384s15.48-34.58 34.58-34.58h345.83v-345.83c0-19.1 15.48-34.58 34.58-34.58s34.58 15.48 34.58 34.58V349.42H892.4c19.1 0 34.58 15.48 34.58 34.58 0.02 19.1-15.46 34.58-34.56 34.58z"  horiz-adv-x="1024" />

    
    <glyph glyph-name="huikuandengji-xianxing" unicode="&#58943;" d="M844.86-31H179.14C133.83-31 97 5.83 97 51.14V526.66c0 45.3 36.83 82.14 82.14 82.14H407.4c19.09 0 34.58-15.49 34.58-34.58 0-19.09-15.49-34.58-34.58-34.58H179.14c-7.16 0-12.97-5.81-12.97-12.97v-475.52c0-7.16 5.81-12.97 12.97-12.97h665.73c7.16 0 12.97 5.81 12.97 12.97V351.58c0 19.09 15.49 34.58 34.58 34.58 19.09 0 34.58-15.49 34.58-34.58v-300.44c0-45.31-36.83-82.14-82.14-82.14zM723.35 391.68c-112.31 0-203.67 91.37-203.67 203.67C519.68 707.63 611.04 799 723.35 799 835.63 799 927 707.63 927 595.35c0-112.31-91.37-203.67-203.65-203.67z m0 338.15c-74.17 0-134.51-60.32-134.51-134.48s60.34-134.51 134.51-134.51 134.48 60.34 134.48 134.51-60.31 134.48-134.48 134.48zM290.16 278.33h-52.9c-11.81 0-21.13 9.3-21.13 21.1V322.7h74.03v-44.37zM216.13 381.82h74.03v-38.02h-74.03zM290.16 402.93h-74.03v23.22c0 11.84 9.31 21.15 21.13 21.15h52.9v-44.37zM311.29 322.65h63.44v-44.33h-63.44zM311.29 381.82h63.44v-38.02h-63.44zM311.29 447.29h63.44v-44.36h-63.44zM469.89 299.43c0-11.8-9.27-21.1-21.13-21.1h-52.9V322.7h74.03v-23.27zM395.86 381.82h74.03v-38.02h-74.03zM469.89 402.93h-74.03v44.36h52.9c11.85 0 21.13-9.3 21.13-21.15v-23.21zM807.88 531.94H689.82l6.19-6.19c8.26-8.26 8.26-21.63 0-29.89a21.065 21.065 0 0 0-14.94-6.19c-5.41 0-10.81 2.06-14.94 6.19l-42.24 42.24a21.26 21.26 0 0 0-4.59 6.9 21.09 21.09 0 0 0 0 16.14 21.1 21.1 0 0 0 11.44 11.44c2.58 1.07 5.32 1.63 8.07 1.63h169.07c11.68 0 21.13-9.45 21.13-21.13 0-11.69-9.45-21.14-21.13-21.14zM827.39 629.54a21.1 21.1 0 0 0-11.44-11.44 21.075 21.075 0 0 0-8.07-1.63H638.81c-11.68 0-21.13 9.45-21.13 21.13s9.45 21.13 21.13 21.13h118.05l-6.19 6.19c-8.26 8.26-8.26 21.63 0 29.89s21.63 8.26 29.89 0l42.24-42.24a21.26 21.26 0 0 0 4.59-6.9 21.157 21.157 0 0 0 0-16.13z"  horiz-adv-x="1024" />

    
    <glyph glyph-name="tiqubaozhengjin" unicode="&#58944;" d="M674.75 719.1L523.2 794.88a25.078 25.078 0 0 1-22.4 0L349.25 719.1a39.238 39.238 0 0 1-21.69-35.1v-213.17c0-21.67 17.57-39.24 39.24-39.24h290.4c21.68 0 39.24 17.57 39.24 39.24V684c0 14.87-8.39 28.45-21.69 35.1z m-74.29-118.91v-25.73h-62.88v-22.91h62.88v-25.77h-62.88v-59.94h-51.57v59.94h-62.1v25.77h62.1v22.91h-62.1v25.73h50.51l-60.44 119.93h53.7l23.31-57.17c6.69-17.62 13.39-35.23 20.82-52.89h1.76a3985.59 3985.59 0 0 0 21.19 52.89l23.31 57.17h51.94l-60.76-119.93h51.21zM834.78 616.03h-69.17v-145.2c0-59.78-48.63-108.41-108.39-108.41H366.78c-59.76 0-108.39 48.63-108.39 108.41v145.2h-69.17c-50.93 0-92.22-41.29-92.22-92.22V62.7c0-50.93 41.29-92.22 92.22-92.22h645.56c50.93 0 92.22 41.29 92.22 92.22V523.81c0 50.94-41.29 92.22-92.22 92.22zM235.33 270.2h391.94c12.74 0 23.06-10.31 23.06-23.06s-10.31-23.06-23.06-23.06H235.33c-12.74 0-23.06 10.31-23.06 23.06s10.32 23.06 23.06 23.06z m530.28-184.44H235.33c-12.74 0-23.06 10.31-23.06 23.06s10.31 23.06 23.06 23.06h530.28c12.74 0 23.06-10.31 23.06-23.06s-10.32-23.06-23.06-23.06z"  horiz-adv-x="1024" />

    
    <glyph glyph-name="zuojiantou-xianxing" unicode="&#58945;" d="M295.13 352.05c-17.61 17.61-17.61 46.3 0 63.91L678.17 799l63.91-63.91L391.01 384l351.07-351.09L678.17-31 295.13 352.05z"  horiz-adv-x="1024" />

    
    <glyph glyph-name="tiqianhuankuandengji" unicode="&#58946;" d="M97 706.27v-391.39h407.05c1.17 6.66 3.13 13.31 5.87 19.57H116.57V686.7H742.8v-194.91c6.65-0.39 13.31-0.78 19.57-1.96V706.27H97zM136.14 667.13v-313.11h381.22c35.62 79.06 113.9 134.64 205.87 137.77V667.13H136.14z m350.3-156.95v-15.65h-41.1v-13.7h41.1v-16.05h-41.1v-32.49h-30.92v32.49h-41.49v16.05h41.49v13.7h-41.49v15.65h34.05l-49.71 78.67h36.79l19.18-38.36c7.83-16.05 10.57-21.53 16.44-32.88h0.78c6.26 11.35 9 17.61 16.44 32.88l19.18 38.36h36.01l-50.1-78.67h34.45zM731.3 453.12c-108.08 0-195.7-87.62-195.7-195.7s87.62-195.7 195.7-195.7S927 149.34 927 257.42s-87.62 195.7-195.7 195.7z m83.03-176.13l-83.03-83.03c-7.64-7.64-20.03-7.64-27.68 0l-55.35 55.35c-7.64 7.64-7.64 20.03 0 27.68 7.64 7.64 20.03 7.64 27.68 0l41.51-41.51 69.19 69.19c7.64 7.64 20.03 7.64 27.68 0 7.64-7.64 7.64-20.03 0-27.68z"  horiz-adv-x="1024" />

    
    <glyph glyph-name="tiqubaozhengjin-xianxing" unicode="&#58947;" d="M670.93 329.65H353.07c-42.24 0-76.61 34.37-76.61 76.61V639.58c0 29.2 16.23 55.47 42.35 68.52l165.88 82.94c17.13 8.54 37.55 8.52 54.59 0.02L705.2 708.1c26.11-13.06 42.35-39.32 42.35-68.52v-233.33c-0.01-42.23-34.38-76.6-76.62-76.6zM512 729.47l-163.1-81.56a9.244 9.244 0 0 1-5.15-8.32v-233.33c0-5.13 4.18-9.31 9.31-9.31h317.87c5.13 0 9.31 4.18 9.31 9.31V639.58c0 3.55-1.97 6.75-5.15 8.32L512 729.47zM848.49-29.45H175.51c-43.29 0-78.51 35.23-78.51 78.51V475.28c0 43.29 35.23 78.51 78.51 78.51h18.45c18.58 0 33.65-15.07 33.65-33.65s-15.07-33.65-33.65-33.65h-18.45c-6.18 0-11.22-5.04-11.22-11.22v-426.22c0-6.18 5.04-11.22 11.22-11.22h672.97c6.18 0 11.22 5.04 11.22 11.22V475.28c0 6.18-5.04 11.22-11.22 11.22h-18.45c-18.58 0-33.65 15.07-33.65 33.65s15.07 33.65 33.65 33.65h18.45c43.29 0 78.51-35.23 78.51-78.51v-426.22c0.01-43.29-35.22-78.52-78.5-78.52zM254.03 250.95h381.35c12.4 0 22.43-10.03 22.43-22.43s-10.03-22.43-22.43-22.43H254.03c-12.4 0-22.43 10.03-22.43 22.43-0.01 12.4 10.03 22.43 22.43 22.43zM769.97 93.93H254.03c-12.4 0-22.43 10.03-22.43 22.43s10.03 22.43 22.43 22.43h515.95c12.4 0 22.43-10.03 22.43-22.43s-10.04-22.43-22.44-22.43zM485.35 427.4v47.5h-49.03v36.43h49.03v28.18h-49.03v36.44h35.21l-39.42 78.91h57.45l17.86-43.64c1.69-4.52 3.34-8.98 5.03-13.41l5.19 13.22 17.93 43.83h56.33l-39.71-78.91h35.75v-36.44h-49.38v-28.18h49.38v-36.43h-49.38v-47.5h-53.21z"  horiz-adv-x="1024" />

    
    <glyph glyph-name="toubaodengji-xianxing" unicode="&#58948;" d="M460.01-31c-3.1 0-6.3 0.42-9.5 1.3-190.6 52.8-328.96 241.76-328.96 449.32V601.49c0 30.13 17.79 57.53 45.3 69.76l272.59 121.22c19.59 8.64 42.15 8.78 61.93 0l272.59-121.22c27.51-12.21 45.35-39.6 45.35-69.76v-105.01c0-19.64-15.93-35.57-35.57-35.57s-35.57 15.93-35.57 35.57V601.49c0 2.08-1.16 3.91-3.06 4.75l-272.6 121.22-276.76-121.22c-1.9-0.83-3.06-2.64-3.06-4.75v-181.87c0-173.35 118.99-337.04 276.81-380.77 18.94-5.23 30.02-24.85 24.78-43.77-4.35-15.75-18.66-26.08-34.27-26.08zM674.88-13.93c-125.48 0-227.57 101.81-227.57 226.97S549.4 440 674.88 440s227.57-101.81 227.57-226.97-102.09-226.96-227.57-226.96z m0 382.78c-86.25 0-156.42-69.9-156.42-155.82s70.17-155.82 156.42-155.82 156.42 69.9 156.42 155.82-70.17 155.82-156.42 155.82zM785.55 289.27c-12.71 12.79-35.02 12.83-47.81 0l-80.81-80.79L621 244.37c-6.35 6.41-14.81 9.96-23.84 9.98h-0.08c-9.03 0-17.53-3.53-23.93-9.94-13.16-13.18-13.16-34.63 0-47.81L633 136.73c6.39-6.37 14.89-9.88 23.93-9.88s17.53 3.53 23.88 9.9l104.73 104.71c6.43 6.41 9.94 14.93 9.94 23.99 0.01 9.03-3.53 17.51-9.93 23.82z"  horiz-adv-x="1024" />

    
    <glyph glyph-name="huikuandengji" unicode="&#58949;" d="M742.56 360.94c-132.29 0-240.79 101.31-252.45 230.56H148.88c-28.65 0-51.88-23.23-51.88-51.88v-518.75c0-28.65 23.22-51.88 51.88-51.88h726.25c28.65 0 51.88 23.22 51.88 51.88V440.85c-46.26-49.09-111.69-79.91-184.45-79.91z m-472.62-45.99h-57.67c-12.88 0-23.03 10.14-23.03 23.01v25.36h80.71v-48.37z m0 71.38h-80.71v41.45h80.71v-41.45z m0 64.46h-80.71V476.1c0 12.91 10.15 23.05 23.03 23.05h57.67v-48.36z m92.2-135.84h-69.17v48.32h69.17v-48.32z m0 71.38h-69.17v41.45h69.17v-41.45z m0 64.46h-69.17v48.37h69.17v-48.37z m103.74-112.83c0-12.86-10.11-23.01-23.03-23.01h-57.67v48.37h80.71v-25.36z m0 48.37h-80.71v41.45h80.71v-41.45z m0 64.46h-80.71v48.37h57.67c12.92 0 23.03-10.14 23.03-23.05v-25.32zM742.56 799c-101.87 0-184.44-82.58-184.44-184.44s82.57-184.44 184.44-184.44S927 512.69 927 614.56C927 716.42 844.43 799 742.56 799z m92.22-253.61H705.99l6.75-6.75c9.01-9.01 9.01-23.6 0-32.6-4.5-4.5-10.4-6.75-16.3-6.75s-11.8 2.25-16.3 6.75l-46.08 46.08c-2.14 2.13-3.83 4.69-5.01 7.53a23.056 23.056 0 0 0 0 17.61 23.06 23.06 0 0 0 12.48 12.48c2.81 1.17 5.8 1.77 8.8 1.77h184.44c12.74 0 23.06-10.31 23.06-23.06 0-12.75-10.31-23.06-23.05-23.06z m21.28 106.47a23.06 23.06 0 0 0-12.48-12.48c-2.81-1.17-5.8-1.77-8.8-1.77H650.33c-12.74 0-23.06 10.31-23.06 23.06 0 12.74 10.31 23.06 23.06 23.06h128.79l-6.75 6.75c-9.01 9.01-9.01 23.6 0 32.6 9.01 9.01 23.6 9.01 32.6 0L851.05 677c2.14-2.13 3.83-4.69 5.01-7.53a23.056 23.056 0 0 0 0-17.61z"  horiz-adv-x="1024" />

    
    <glyph glyph-name="shanchu-xianxing" unicode="&#58950;" d="M871.01 588.73H152.99c-18.19 0-32.93 14.74-32.93 32.93v0.54c0 18.19 14.74 32.93 32.93 32.93h718.03c18.19 0 32.93-14.74 32.93-32.93v-0.54c-0.01-18.18-14.75-32.93-32.94-32.93zM729.75-31h-435.5c-42.02 0-76.21 34.76-76.21 77.47V655.13h587.92v-608.67c0-42.7-34.19-77.46-76.21-77.46zM283.37 588.73v-542.27c0-6.1 4.89-11.07 10.89-11.07h435.49c6 0 10.89 4.97 10.89 11.07V588.73H283.37zM599.1 710.47H424.9c-24.05 0-43.55 19.82-43.55 44.27S400.85 799 424.9 799h174.2c24.05 0 43.55-19.82 43.55-44.27s-19.5-44.26-43.55-44.26zM381.35 146.07c-18.03 0-32.66 14.87-32.66 33.2v265.6c0 18.33 14.63 33.2 32.66 33.2 18.03 0 32.66-14.87 32.66-33.2v-265.6c0-18.33-14.63-33.2-32.66-33.2zM512 146.07c-18.03 0-32.66 14.87-32.66 33.2v265.6c0 18.33 14.63 33.2 32.66 33.2s32.66-14.87 32.66-33.2v-265.6c0-18.33-14.63-33.2-32.66-33.2zM642.65 146.07c-18.03 0-32.66 14.87-32.66 33.2v265.6c0 18.33 14.63 33.2 32.66 33.2s32.66-14.87 32.66-33.2v-265.6c0-18.33-14.63-33.2-32.66-33.2z"  horiz-adv-x="1024" />

    
    <glyph glyph-name="tuibaodengji-xianxing" unicode="&#58951;" d="M691.42 157.25c-6.13 0-12.4 1.16-18.36 3.57-18.53 7.49-30.54 25.26-30.54 45.24v32.12h-146.9c-42.72 0-77.46 31.46-77.46 70.1V459.7c0 38.64 34.74 70.1 77.46 70.1h146.91v32.1c0 20.05 12.01 37.83 30.63 45.3 18.62 7.43 39.56 2.94 53.45-11.52l171.05-177.84a48.65 48.65 0 0 0 0-67.69L726.52 172.23c-9.42-9.79-22.13-14.98-35.1-14.98zM485.45 308.28c0.39 0 3.99-2.8 10.16-2.8h214.21v-53.54L836.84 384 709.82 516.02v-53.52h-214.2c-6.22 0-9.86-2.89-10.38-3.88l0.21-150.34z m363.7 62.94c0-0.02 0-0.04 0.04-0.04l-0.04 0.04zM678.06 549.06c0-0.02 0-0.02 0.04-0.04l-0.04 0.04zM462.84-31H236.02c-68.04 0-123.38 55.34-123.38 123.38V675.62C112.64 743.66 167.98 799 236.02 799h226.82c68.04 0 123.38-55.34 123.38-123.38v-44.87c0-18.58-15.07-33.65-33.65-33.65s-33.65 15.07-33.65 33.65v44.87c0 30.93-25.15 56.08-56.08 56.08H236.02c-30.93 0-56.08-25.15-56.08-56.08v-583.24c0-30.93 25.15-56.08 56.08-56.08h226.82c30.93 0 56.08 25.15 56.08 56.08v44.84c0 18.58 15.07 33.65 33.65 33.65s33.65-15.07 33.65-33.65v-44.84c0-68.04-55.33-123.38-123.38-123.38z"  horiz-adv-x="1024" />

    
    <glyph glyph-name="xiugai" unicode="&#58952;" d="M223.22 85.33c-37.13 2.77-64.51 29.72-68.36 64.16l2.12 157.59c0 23.6 10.2 47.51 28.01 65.08L495.47 682.4l256.72-256.51-310.64-310.4c-17-16.99-39.81-26.86-64.17-27.81l-154.16-2.35z m272.25 499.34L233.73 323.14c-4.89-4.81-7.59-10.8-7.59-16.58l-2.34-153.74 151.73 3.96c5.99 0.22 12.54 3.01 17.11 7.58l261.74 261.53-158.91 158.78zM771.4 445.86L515.13 702.08l63.65 63.55c44.54 44.5 117.01 44.45 161.64 0.04l95.55-95.48c44.47-44.45 44.49-116.92 0.05-161.51l-64.62-62.82zM612.94 702.04l159.14-159.08 15.33 14.89c17.2 17.28 17.22 45.92-0.36 63.49l-95.51 95.43c-17.58 17.53-46.27 17.57-63.85 0l-14.75-14.73zM843.73-31H180.27c-20.52 0-37.16 16.64-37.16 37.16 0 20.52 16.64 37.16 37.16 37.16h663.46c20.52 0 37.16-16.64 37.16-37.16 0-20.52-16.64-37.16-37.16-37.16z"  horiz-adv-x="1024" />

    
    <glyph glyph-name="zhanghuguanli" unicode="&#58953;" d="M558.11 296.83c0-5.99 0.46-11.99 1.38-17.98 8.76-67.78 66.86-120.35 136.95-120.35H927v-92.22c0-50.72-41.5-92.22-92.22-92.22H189.22c-50.72 0-92.22 41.5-92.22 92.22v415c0 50.72 41.5 92.22 92.22 92.22h645.56c50.72 0 92.22-41.5 92.22-92.22v-46.11H696.44c-76.08-0.01-138.33-62.25-138.33-138.34zM696.44 389.05c-50.93 0-92.22-41.29-92.22-92.22s41.29-92.22 92.22-92.22H927V389.05H696.44z m0-126.8c-19.1 0-34.58 15.48-34.58 34.58 0 19.1 15.48 34.58 34.58 34.58s34.58-15.48 34.58-34.58c0.01-19.1-15.48-34.58-34.58-34.58zM761.13 619.61l-87.28 151.25c-12.45 22.13-40.58 29.51-62.71 17.06L319.41 619.61h441.72z"  horiz-adv-x="1024" />

    
    <glyph glyph-name="shangjiantou" unicode="&#58954;" d="M476.26 596.21L106.14 211.57c-19.85-20.63-5.23-54.99 23.4-54.99h764.93c28.63 0 43.25 34.36 23.4 54.99L547.74 596.21c-19.51 20.28-51.97 20.28-71.48 0z"  horiz-adv-x="1024" />

    
    <glyph glyph-name="youjiantou" unicode="&#58955;" d="M724.21 419.74L339.57 789.86c-20.63 19.85-54.99 5.23-54.99-23.4v-764.93c0-28.63 34.36-43.25 54.99-23.4l384.65 370.13c20.27 19.51 20.27 51.97-0.01 71.48z"  horiz-adv-x="1024" />

    
    <glyph glyph-name="shuaxin" unicode="&#58910;" d="M519.57 15.11c-32.03 0-64.1 4.3-95.31 12.82-124.42 33.87-222.63 132.74-256.31 258.01-3.15 9.07-2.53 19.44 1.92 28.65 4.43 9.2 12.18 16.1 21.76 19.42 4.03 1.4 8.19 2.11 12.42 2.11 16.21 0 30.64-10.35 35.92-25.76 0.66-1.91 1.17-3.88 1.52-5.9 33.7-125.38 147.97-213.51 277.68-213.51 25.31 0 50.66 3.39 75.35 10.11 98.5 26.83 176.23 105.07 202.88 204.22 4.47 16.65 19.56 28.29 36.67 28.29 3.35 0 6.7-0.47 9.96-1.35 16.17-4.41 27.71-19.27 28.06-36.14 0.02-3.59-0.44-7.01-1.37-10.29-42.82-159.31-187.23-270.68-351.15-270.68zM135 215.23c-5.13 0-10.15 1.02-14.91 3.06-19.27 8.29-28.26 30.82-20.04 50.24l44.51 105.07c3.99 9.31 11.61 16.76 20.92 20.49 4.52 1.86 9.41 2.84 14.41 2.84s9.89-0.98 14.54-2.88l104.34-44.85c14.21-6.03 23.3-20 23.17-35.59 0-10.11-3.94-19.73-11.12-26.98-7.16-7.23-16.7-11.22-26.85-11.24-5.24 0-10.31 1.06-15.09 3.13l-69.23 29.82L170 238.49c-5.99-14.12-19.74-23.26-35-23.26zM822.06 425.22c-17 0.44-31.76 12.37-35.86 29-31.26 130.94-146.32 222.36-279.87 222.36-22.6 0-45.31-2.7-67.49-8.07-99.34-24.03-179.29-100.15-208.63-198.66-5.18-16.01-19.69-26.63-36.19-26.63-4.01 0-7.95 0.64-11.78 1.91-19.34 6.34-30.26 26.78-24.89 46.52C203.34 645.56 346.64 752.9 505.94 752.9c35.4 0 70.73-5.25 104.95-15.61 123.66-37.43 219.14-139.19 249.2-265.61 0.66-3.1 0.95-6.01 0.99-8.89-0.55-21.22-17.25-37.58-38.02-37.58l-1 0.01zM829.38 381.74c-7 0-13.88 1.95-19.87 5.63l-96.58 59.84c-17.91 10.69-23.9 34.21-13.19 52.37 6.81 11.57 19.34 18.76 32.73 18.76 6.78 0 13.46-1.84 19.32-5.32l65.57-39.62 38.85 65.18c6.72 11.62 19.32 18.91 32.82 18.91 6.7 0 13.3-1.82 19.1-5.21 12.73-7.45 20.07-21.79 18.72-36.58-0.13-6.16-2.11-12.79-5.66-18.54l-59.43-97.18c-5.22-8.58-13.81-14.85-23.57-17.18-2.89-0.71-5.86-1.06-8.81-1.06z"  horiz-adv-x="1024" />

    
    <glyph glyph-name="zhongzhi" unicode="&#58913;" d="M838.4 277.29H185.6c-48.86 0-88.6-39.74-88.6-88.6V57.6c0-48.86 39.74-88.6 88.6-88.6h652.8c48.86 0 88.6 39.74 88.6 88.6V188.68c0 48.87-39.74 88.61-88.6 88.61z m17.46-219.69c0-9.63-7.83-17.46-17.46-17.46h-53.68v83c0 19.64-15.93 35.57-35.57 35.57s-35.57-15.93-35.57-35.57v-83h-47.43v83c0 19.64-15.93 35.57-35.57 35.57s-35.57-15.93-35.57-35.57v-83H185.6c-9.63 0-17.46 7.83-17.46 17.46V188.68c0 9.63 7.83 17.46 17.46 17.46h652.8c9.63 0 17.46-7.83 17.46-17.46V57.6zM850.35 514.43H642.43V716c0 45.76-37.24 83-83 83h-94.86c-45.76 0-83-37.24-83-83v-201.57H173.65c-42.29 0-76.65-34.39-76.65-76.65v-60.12c0-42.26 34.37-76.65 76.65-76.65h676.69c42.29 0 76.65 34.39 76.65 76.65v60.12c0.01 42.26-34.36 76.65-76.64 76.65z m5.51-136.78c0-3.03-2.45-5.51-5.51-5.51h-676.7c-3.06 0-5.51 2.48-5.51 5.51v60.12c0 3.03 2.45 5.51 5.51 5.51h219.68c32.75 0 59.38 26.66 59.38 59.4V716c0 6.53 5.33 11.86 11.86 11.86h94.86c6.53 0 11.86-5.33 11.86-11.86v-213.31c0-32.75 26.63-59.4 59.38-59.4h219.68c3.06 0 5.51-2.48 5.51-5.51v-60.13z"  horiz-adv-x="1024" />

    
    <glyph glyph-name="bianji" unicode="&#58908;" d="M414.49 171.68c-11.81-11.81-27.77-18.47-44.23-19.1l-165.23-2.51c-19.1 1.51-33.93 16.96-36.06 36.06l2.51 165.23c0 16.46 7.16 32.42 19.1 44.23l308.35 308.35 223.91-223.91-308.35-308.35z m336 336.12L526.7 731.71l42.22 42.22c33.42 33.42 87.96 33.42 121.51 0l102.91-102.91c33.42-33.42 33.42-87.96 0-121.51l-42.85-41.71zM791.2-31H233.3c-35.56 0-64.33 28.77-64.33 64.33s28.77 64.33 64.33 64.33h557.4c35.56 0 64.33-28.77 64.33-64.33S826.76-31 791.2-31z"  horiz-adv-x="1024" />

    
    <glyph glyph-name="shanchu" unicode="&#58909;" d="M880.6 680.16H749.26c-0.74 5-2.32 10-4.72 14.91l-32.33 66.41c-10.93 22.51-37.05 37.14-66.04 37.14H379.41c-28.99 0-55.11-14.63-66.04-37.14l-32.42-66.41c-2.41-5-3.98-10-4.82-14.91H143.31c-25.47 0-46.31-20.84-46.31-46.31v-25.56c0-25.47 20.84-46.31 46.31-46.31h72.06v-546.29c0-25.47 20.84-46.31 46.31-46.31h499.8c25.47 0 46.31 20.84 46.31 46.31V562.07h72.89c25.47 0 46.31 20.84 46.31 46.31v25.56c-0.08 25.38-20.92 46.22-46.39 46.22zM395.9 117.94c0-16.58-13.52-30.1-30.1-30.1s-30.1 13.52-30.1 30.1V472.59c0 16.58 13.52 30.1 30.1 30.1s30.1-13.52 30.1-30.1v-354.65z m149.03 0c0-16.58-13.52-30.1-30.1-30.1s-30.1 13.52-30.1 30.1V472.59c0 16.58 13.52 30.1 30.1 30.1 16.58 0 30.1-13.52 30.1-30.1v-354.65z m148.38 0c0-16.58-13.52-30.1-30.1-30.1s-30.1 13.52-30.1 30.1V472.59c0 16.58 13.52 30.1 30.1 30.1s30.1-13.52 30.1-30.1v-354.65z"  horiz-adv-x="1024" />

    
    <glyph glyph-name="kejian" unicode="&#58911;" d="M512 384m-138.33 0a138.33 138.33 0 1 1 276.66 0 138.33 138.33 0 1 1-276.66 0ZM512 660.67C235.33 660.67 97 384 97 384s138.33-276.67 415-276.67S927 384 927 384 788.67 660.67 512 660.67z m0-461.11c-101.87 0-184.44 82.58-184.44 184.44 0 101.87 82.58 184.44 184.44 184.44S696.44 485.87 696.44 384c0-101.86-82.57-184.44-184.44-184.44z"  horiz-adv-x="1024" />

    
    <glyph glyph-name="bukejian" unicode="&#58912;" d="M383.05 432.11l218.38-153.1c-23.91-20.69-55.17-33.1-89.65-33.1-76.32 0-137.93 61.61-137.93 137.93 0.01 17 3.22 33.56 9.2 48.27zM649.71 383.83c0-17.01-3.22-33.56-9.2-48.27l-218.38 153.1c23.91 20.69 55.17 33.1 89.65 33.1 76.32 0 137.93-61.61 137.93-137.93zM511.78 659.69c-92.41 0-169.65-30.8-230.8-72.18l102.53-71.72c33.1 32.18 78.62 51.95 128.27 51.95 101.61 0 183.9-82.29 183.9-183.9 0-26.66-5.52-51.95-16.55-74.94l120.45-84.13c84.14 75.4 125.97 159.07 125.97 159.07S787.63 659.69 511.78 659.69z m0-459.76c-101.61 0-183.9 82.3-183.9 183.9 0 26.67 5.52 51.95 16.55 74.94l-120.45 84.14C139.84 467.51 98 383.83 98 383.83s137.93-275.85 413.78-275.85c92.41 0 169.65 30.81 230.8 72.18l-102.53 71.72c-33.1-32.18-78.62-51.95-128.27-51.95zM887.65 156.72L188.3 646.41c-14.87 10.41-18.49 30.91-8.07 45.79l1.84 2.63c10.41 14.87 30.91 18.49 45.79 8.07l699.35-489.69c14.87-10.41 18.49-30.91 8.07-45.79l-1.84-2.63c-10.41-14.87-30.91-18.49-45.79-8.07z"  horiz-adv-x="1024" />

    
    <glyph glyph-name="yitoubao" unicode="&#58905;" d="M451.18 89.5c3.72-11.56 8.68-22.72 14.46-33.04H313.63l137.55 33.04zM722.97 645.48v-226.35c-12.8 2.06-25.61 3.3-39.24 3.3h-2.89V687.2c23.13 0 42.13-18.59 42.13-41.72zM596.57 798.73l-420.49-101.2c-23.13-5.78-42.13-28.91-42.13-52.05v-546.89c0-23.13 19-37.59 42.13-32.22l263.94 63.61c-2.89 14.46-4.13 29.33-4.13 44.61 0 121.44 87.15 222.64 202.81 243.7V766.92c0.01 23.13-19 37.59-42.13 31.81z m0-189.19c0-11.57-9.5-23.54-21.07-26.02l-378.36-91.29c-11.57-2.89-21.07 4.55-21.07 16.11V592.2c0 11.98 9.5 23.54 21.07 26.43L575.5 709.5c11.57 2.89 21.07-4.13 21.07-15.7v-84.26zM683.52 381.06c-114.06 0-206.53-92.47-206.53-206.53S569.46-32 683.52-32s206.53 92.47 206.53 206.53-92.46 206.53-206.53 206.53z m87.63-185.88l-87.62-87.62c-8.07-8.07-21.14-8.07-29.21 0l-58.42 58.41c-8.07 8.07-8.07 21.14 0 29.21s21.14 8.07 29.21 0l43.81-43.81 73.02 73.02c8.07 8.07 21.14 8.07 29.21 0 8.06-8.06 8.06-21.14 0-29.21z"  horiz-adv-x="1024" />

    
    <glyph glyph-name="yiqianyue" unicode="&#58906;" d="M458.79 208.84c0 88.6 45.15 166.62 113.67 212.42-3.43 13.15-6.1 24.85-7.26 33.13-3.02 21.71-2.47 69.21-1.53 104.79h25.88c15.2 0 29.2 8.13 36.99 21.2 15.15 25.45 23.84 55.33 23.84 86.91 0 29.84-29.2 58.18-42.95 82.83-7.53 13.49-21.92 21.88-37.41 21.88H390.18c-15.49 0-29.84-8.38-37.41-21.88-13.7-24.64-42.9-52.99-42.9-82.83 0-31.58 8.64-61.46 23.79-86.91 7.79-13.07 21.79-21.2 36.99-21.2h25.84c0.98-35.58 1.49-83.08-1.53-104.79-2.34-16.98-10.98-48.05-19.84-77.46-8.98-29.84-36.47-50.22-67.63-50.22h-23.71c-70.44 0-136.58-32.73-177.7-87.93l-6.73-8.98c-7.32-14.13 3.32-30.77 19.71-30.77h20.51v-63.7c0-11.79 9.62-21.41 21.45-21.41h316.21c-11.78 29.35-18.44 61.33-18.44 94.92zM714.18 421.66c-117.54 0-212.82-95.28-212.82-212.82s95.28-212.82 212.82-212.82S927 91.3 927 208.84s-95.28 212.82-212.82 212.82z m90.29-191.54l-90.29-90.29c-8.31-8.31-21.79-8.31-30.1 0l-60.2 60.19c-8.31 8.31-8.31 21.79 0 30.1 8.31 8.31 21.79 8.31 30.1 0l45.14-45.15 75.24 75.24c8.31 8.31 21.79 8.31 30.1 0 8.32-8.3 8.32-21.78 0.01-30.09z"  horiz-adv-x="1024" />

    
    <glyph glyph-name="yifukuan" unicode="&#58907;" d="M96 707.05v-392.34h408.03c1.18 6.67 3.14 13.34 5.88 19.62h-394.3v353.1h627.74v-195.38c6.67-0.39 13.34-0.79 19.62-1.96V707.05H96zM135.23 667.81v-313.87h382.13c35.7 79.25 114.17 134.96 206.37 138.1V667.81h-588.5z m351.14-157.32v-15.69h-41.19v-13.73h41.19v-16.08h-41.19v-32.56h-31v32.56H372.6v16.08h41.59V494.8H372.6v15.69h34.13l-49.83 78.86h36.88L413 550.9c7.85-16.09 10.59-21.58 16.48-32.96h0.79c6.28 11.38 9.02 17.66 16.48 32.96l19.22 38.45h36.09l-50.22-78.86h34.53zM731.83 453.29c-108.34 0-196.17-87.83-196.17-196.17s87.83-196.17 196.17-196.17S928 148.78 928 257.12s-87.83 196.17-196.17 196.17z m83.23-176.55l-83.23-83.23c-7.66-7.66-20.08-7.66-27.74 0l-55.49 55.48c-7.66 7.66-7.66 20.08 0 27.74s20.08 7.66 27.74 0l41.61-41.61 69.36 69.36c7.66 7.66 20.08 7.66 27.74 0 7.67-7.66 7.67-20.08 0.01-27.74z"  horiz-adv-x="1024" />

    
    <glyph glyph-name="bujudaxiao" unicode="&#58880;" d="M593.66-63.5V736.99H331.57V831.5h627.42l-0.02-94.51h-262.1V-63.5H593.66z m-395.39 0V336.75H65.01v94.51H425.9v-94.51H292.64V-63.5h-94.37z"  horiz-adv-x="1024" />

    
    <glyph glyph-name="baodanguanli" unicode="&#58881;" d="M815.8 695.99v-562.6c0-51.66-38.48-99.84-89.5-112.07L373.93-63.5H815.8c27.94 0 50.62 22.67 50.62 50.67V645.38c0 27.94-22.68 50.61-50.62 50.61zM765.18 133.39V791.6c0 27.94-22.72 45.2-50.67 38.43L208.15 708.17c-27.89-6.71-50.57-34.8-50.57-62.8v-658.21c0-27.99 22.67-45.2 50.57-38.48L714.51 70.6c27.95 6.7 50.67 34.79 50.67 62.79z m-75.98 437.4L233.5 461.15c-13.97-3.38-25.36 5.22-25.36 19.19V581.57c0 14.02 11.39 28.04 25.36 31.42l455.7 109.69c13.97 3.38 25.31-5.27 25.31-19.19v-101.28c0-13.97-11.33-28.04-25.31-31.42z"  horiz-adv-x="1024" />

    
    <glyph glyph-name="cheliangguanli" unicode="&#58882;" d="M959.5 384v-200.88c0-53.6-43.85-97.46-97.46-97.46h-1.99c0 82.04-67.12 149.17-149.17 149.17s-149.17-67.12-149.17-149.17h-99.44c0 82.04-67.12 149.17-149.17 149.17s-149.17-67.12-149.17-149.17h-1.99c-53.6 0-97.46 43.85-97.46 97.46v234c0 10.84 2.98 21.53 8.55 30.88l130.42 217.39c6.31 10.54 17.7 16.96 29.98 16.96h228.82V384H959.5zM512 433.72V732.4c0 27.25 22.13 49.37 49.37 49.37H859.9c54.99 0 99.59-44.6 99.59-99.59v-248.46H512zM412.56 85.67c0 54.89-44.55 99.44-99.44 99.44s-99.44-44.55-99.44-99.44 44.55-99.44 99.44-99.44 99.44 44.54 99.44 99.44M810.33 85.67c0 54.89-44.55 99.44-99.44 99.44s-99.44-44.55-99.44-99.44 44.55-99.44 99.44-99.44c54.89-0.01 99.44 44.54 99.44 99.44"  horiz-adv-x="1024" />

    
    <glyph glyph-name="baoxianjigou" unicode="&#58883;" d="M860.06 781.78H163.94L64.5 554.5h99.44v-568.28h298.33V163.78s0 56.83 49.72 56.83 49.72-56.83 49.72-56.83v-177.56h298.33V554.5h99.44l-99.42 227.28zM387.69 50.16H238.53v28.39h24.86V220.61h99.44v-142.06h24.86v-28.39z m0 284.12H238.53v28.39h24.86V504.78h99.44v-142.11h24.86v-28.39z m198.89 0H437.42v28.39h24.86V504.78h99.44v-142.11h24.86v-28.39z m198.89-284.12H636.31v28.39h24.86V220.61h99.44v-142.06h24.86v-28.39z m0 284.12H636.31v28.39h24.86V504.78h99.44v-142.11h24.86v-28.39z"  horiz-adv-x="1024" />

    
    <glyph glyph-name="kehuxinxi-01" unicode="&#58884;" d="M718.53 122.01c16.21-12.18 17.85-35.7 3.63-50.12-82.44-83.53-197.05-135.34-323.69-135.39-126.54-0.1-241.1 51.61-323.59 135-14.22 14.37-12.68 37.89 3.43 50.07 50.87 38.53 121.72 72.4 186.56 95.77 8.1 2.78 44.8 22.77 29.93 75.08-1.79 6.22-5.17 11.83-9.6 16.56-55.49 60.26-96.81 153.79-96.81 245.78 0 146.28 97.16 222.86 210.28 222.86 113.17 0 210.52-76.67 210.52-222.86 0-91.44-41.07-184.27-96.31-244.63-4.57-5.02-8.06-11.04-9.75-17.6-15.56-59.07 16.81-73.59 22.18-75.38 68.41-22.69 141.41-56.25 193.22-95.14M947.67 280.77c-43.56 32.62-104.82 60.86-162.29 79.9-4.52 1.49-31.67 13.67-18.7 63.3 1.49 5.52 4.38 10.54 8.25 14.77 46.39 50.72 80.85 128.73 80.85 205.55 0 122.76-81.74 187.21-176.81 187.21-47.83 0-92.28-16.31-124.55-48.18 67.13-47.93 107.9-129.03 107.9-228.57 0-97.85-41.57-204.41-108.54-278.64-1.24-5.42-1.64-9.3-1.69-11.93 49.27-16.96 132.31-50.17 198.29-99.64 9.94-7.46 18.1-16.86 23.97-27.55 67.92 17.5 128.58 53.25 176.42 101.63 11.91 12.12 10.52 31.91-3.1 42.15"  horiz-adv-x="1024" />

    
    <glyph glyph-name="daohanglanzhedie" unicode="&#58885;" d="M925.49 254.62L750.63 377.04c-2.39 1.67-3.78 4.21-3.78 6.91s1.39 5.24 3.78 6.91l174.86 122.52c6.49 4.57 16.11 0.5 16.11-6.86v-244.93c0-3.39-2.17-6.48-5.6-7.96-3.43-1.49-7.51-1.1-10.51 0.99zM101.79 728.95h820.42c20.6 0 37.29-16.7 37.29-37.29 0-20.6-16.7-37.29-37.29-37.29H101.79c-20.6 0-37.29 16.7-37.29 37.29s16.7 37.29 37.29 37.29zM101.79 113.64h820.42c20.6 0 37.29-16.7 37.29-37.29 0-20.6-16.7-37.29-37.29-37.29H101.79c-20.6 0-37.29 16.7-37.29 37.29s16.7 37.29 37.29 37.29zM101.79 318.74h503.44c20.6 0 37.29-16.7 37.29-37.29 0-20.6-16.7-37.29-37.29-37.29H101.79c-20.6 0-37.29 16.7-37.29 37.29s16.7 37.29 37.29 37.29zM101.79 523.84h503.44c20.6 0 37.29-16.7 37.29-37.29 0-20.6-16.7-37.29-37.29-37.29H101.79c-20.6 0-37.29 16.7-37.29 37.29 0 20.6 16.7 37.29 37.29 37.29z"  horiz-adv-x="1024" />

    
    <glyph glyph-name="daohanglanzhankai" unicode="&#58886;" d="M98.51 254.62l174.86 122.42c2.39 1.67 3.78 4.21 3.78 6.91s-1.39 5.24-3.78 6.91L98.51 513.38c-6.49 4.57-16.11 0.5-16.11-6.86v-244.93c0-3.39 2.17-6.48 5.6-7.96 3.43-1.49 7.51-1.1 10.51 0.99zM922.21 728.95H101.79c-20.6 0-37.29-16.7-37.29-37.29 0-20.6 16.7-37.29 37.29-37.29h820.42c20.6 0 37.29 16.7 37.29 37.29s-16.7 37.29-37.29 37.29zM922.21 113.64H101.79c-20.6 0-37.29-16.7-37.29-37.29 0-20.6 16.7-37.29 37.29-37.29h820.42c20.6 0 37.29 16.7 37.29 37.29s-16.7 37.29-37.29 37.29zM922.21 318.74H418.77c-20.6 0-37.29-16.7-37.29-37.29 0-20.6 16.7-37.29 37.29-37.29h503.44c20.6 0 37.29 16.7 37.29 37.29s-16.7 37.29-37.29 37.29zM922.21 523.84H418.77c-20.6 0-37.29-16.7-37.29-37.29 0-20.6 16.7-37.29 37.29-37.29h503.44c20.6 0 37.29 16.7 37.29 37.29 0 20.6-16.7 37.29-37.29 37.29z"  horiz-adv-x="1024" />

    
    <glyph glyph-name="huankuanguanli" unicode="&#58887;" d="M453.61 511.86h-75.95l85.45-166.44h-71.45v-35.74h87.94v-31.82h-87.94v-35.74h87.94v-83.22h72.95v83.22h88.94v35.74h-88.94v31.82h88.94v35.74h-72.45l85.95 166.44h-73.45l-32.98-79.31c-9.99-23.99-19.99-48.46-29.98-73.43h-2.5c-10.49 24.48-19.99 48.95-29.48 73.43l-32.99 79.31zM512 831.5l441.2-385.92-183.15-0.03 0.01-509.06H245.62l-0.04 509.06-174.78 0.03L512 831.5z"  horiz-adv-x="1024" />

    
    <glyph glyph-name="hetongguanli" unicode="&#58888;" d="M956.75 134.99l-7.81 10.49C900.86 209.97 823.59 248.2 741.31 248.2h-27.69c-36.4 0-68.51 23.82-79.01 58.67-10.34 34.36-20.39 70.65-23.17 90.49-3.53 25.36-2.88 80.85-1.79 122.41h30.23c17.75 0 34.11 9.5 43.21 24.76 17.7 29.73 27.84 64.64 27.84 101.53 0 34.85-34.11 67.97-50.17 96.76-8.8 15.76-25.61 25.56-43.7 25.56H406.99c-18.1 0-34.85-9.79-43.7-25.56-16.01-28.79-50.12-61.9-50.12-96.76 0-36.89 10.09-71.8 27.79-101.53 9.1-15.26 25.46-24.76 43.21-24.76h30.18c1.14-41.57 1.74-97.05-1.79-122.41-2.73-19.84-12.83-56.13-23.17-90.49-10.49-34.85-42.61-58.67-79.01-58.67h-27.69c-82.29 0-159.55-38.24-207.58-102.72l-7.86-10.49c-8.55-16.51 3.88-35.95 23.02-35.95h23.95v-74.41c0-13.77 11.24-25.01 25.06-25.01h745.46c13.83 0 25.01 11.23 25.01 25.01v74.41h24.03c19.09 0 31.52 19.44 22.97 35.95z"  horiz-adv-x="1024" />

    
    <glyph glyph-name="toubaodengji" unicode="&#58889;" d="M468.34 183.56c0 137.33 111.28 248.61 248.61 248.61 46.59 0 89.6-13.57 126.89-35.9 0.6 10.14 1.24 20.29 1.24 30.48v214.1a47.94 47.94 0 0 1-28.49 43.86L495.79 827.36a47.947 47.947 0 0 1-38.98 0L135.95 684.71c-17.3-7.71-28.44-24.86-28.44-43.86v-214.1c0-223.3 151.6-431.79 356.51-488.57a45.903 45.903 0 0 1 24.61 0c32.17 8.9 62.85 21.93 91.99 37.79-67.53 44.45-112.28 120.67-112.28 207.59zM716.96 382.46c-110.23 0-199.54-89.05-199.54-198.89s89.3-198.89 199.54-198.89c110.18 0 199.54 89.05 199.54 198.89s-89.36 198.89-199.54 198.89z m119.73-154.88L713.43 104.32c-9.7-9.7-25.51-9.7-35.2 0l-70.46 70.46c-9.7 9.7-9.7 25.51 0 35.2 9.75 9.75 25.51 9.75 35.2 0l52.85-52.85 105.66 105.66c9.75 9.75 25.51 9.75 35.2 0 9.76-9.71 9.76-25.47 0.01-35.21z"  horiz-adv-x="1024" />

    
    <glyph glyph-name="shouye" unicode="&#58890;" d="M959.5 287.38c0-87.56-23.47-168.58-70.42-243.06-6.33-9.73-15.31-14.59-26.98-14.59H161.9c-11.66 0-20.65 4.86-26.98 14.59C87.97 118.46 64.5 199.48 64.5 287.38c0 61.06 11.82 119.43 35.46 175.12s55.44 103.67 95.39 143.92c39.96 40.27 87.57 72.3 142.84 96.12s113.2 35.73 173.8 35.73c60.6 0 118.53-11.91 173.8-35.73 55.27-23.82 102.88-55.86 142.84-96.12 39.95-40.25 71.75-88.23 95.39-143.92 23.66-55.69 35.48-114.06 35.48-175.12zM799.68 512.82c0 17.78-6.24 32.96-18.73 45.54-12.48 12.58-27.55 18.87-45.2 18.87s-32.72-6.29-45.2-18.87c-12.49-12.58-18.73-27.76-18.73-45.54s6.24-32.96 18.73-45.54c12.48-12.58 27.55-18.87 45.2-18.87s32.72 6.3 45.2 18.87c12.49 12.58 18.73 27.76 18.73 45.54z m-223.75 96.62c0 17.79-6.24 32.96-18.73 45.55-12.47 12.57-27.55 18.86-45.2 18.86-17.65 0-32.72-6.29-45.2-18.86-12.49-12.58-18.73-27.76-18.73-45.55 0-17.78 6.24-32.96 18.73-45.54 12.48-12.58 27.55-18.87 45.2-18.87 17.65 0 32.72 6.3 45.2 18.87 12.49 12.58 18.73 27.76 18.73 45.54z m319.64-322.06c0 17.78-6.24 32.96-18.73 45.54-12.49 12.58-27.55 18.87-45.2 18.87-17.65 0-32.71-6.29-45.2-18.87-12.49-12.58-18.73-27.76-18.73-45.54 0-17.78 6.24-32.96 18.73-45.54 12.49-12.58 27.55-18.87 45.2-18.87s32.72 6.29 45.2 18.87c12.49 12.58 18.73 27.76 18.73 45.54z m-329.63-16.6l50.45 192.23c1.99 8.72 0.75 16.86-3.75 24.41-4.5 7.54-10.91 12.49-19.23 14.84-8.32 2.34-16.31 1.25-23.98-3.28-7.66-4.53-12.66-11.15-14.98-19.88l-50.44-192.23c-19.98-1.68-37.79-8.97-53.44-21.89-15.65-12.92-26.14-29.43-31.46-49.57-6.66-25.83-3.33-50.32 9.99-73.47s32.79-38.07 58.43-44.78c25.64-6.71 49.95-3.36 72.92 10.07 22.97 13.41 37.79 33.04 44.45 58.88 5.33 20.13 4.33 39.75-3 58.88-7.32 19.11-19.31 34.37-35.96 45.79zM352.18 512.82c0 17.78-6.24 32.96-18.73 45.54-12.48 12.58-27.55 18.87-45.2 18.87-17.65 0-32.72-6.29-45.2-18.87-12.49-12.58-18.73-27.76-18.73-45.54s6.24-32.96 18.73-45.54c12.48-12.58 27.55-18.87 45.2-18.87 17.65 0 32.72 6.3 45.2 18.87 12.49 12.58 18.73 27.76 18.73 45.54z m-95.89-225.44c0 17.78-6.24 32.96-18.73 45.54-12.49 12.58-27.55 18.87-45.2 18.87-17.65 0-32.72-6.29-45.2-18.87-12.48-12.58-18.73-27.76-18.73-45.54 0-17.78 6.24-32.96 18.73-45.54 12.49-12.58 27.55-18.87 45.2-18.87 17.65 0 32.71 6.29 45.2 18.87 12.48 12.58 18.73 27.76 18.73 45.54z"  horiz-adv-x="1024" />

    
    <glyph glyph-name="sousuo" unicode="&#58891;" d="M949.41-4.73L714.28 230.4c-0.14 0.14-0.3 0.23-0.44 0.36 119.41 144.02 111.81 358.56-23.07 493.43-143.09 143.09-375.89 143.07-518.96 0-143.08-143.07-143.08-375.89 0-518.96 71.54-71.54 165.51-107.32 259.48-107.32 83.2 0 166.32 28.17 233.95 84.25 0.13-0.14 0.22-0.3 0.36-0.44l235.13-235.13c6.71-6.73 15.53-10.09 24.34-10.09s17.63 3.36 24.34 10.09c13.45 13.44 13.45 35.24 0 48.68zM642.08 253.92c-116.23-116.23-305.35-116.25-421.58 0-116.23 116.23-116.23 305.35 0 421.58 58.11 58.11 134.45 87.17 210.79 87.17s152.68-29.06 210.79-87.17c116.23-116.23 116.23-305.35 0-421.58z"  horiz-adv-x="1024" />

    
    <glyph glyph-name="xitonggongju" unicode="&#58892;" d="M607.89 214.19c0-14.43-11.37-26.08-25.5-26.08H441.56l-4.57 0.42c-11.86 2.21-20.88 12.83-20.88 25.66l-0.02 108.27H64.5v-313.78c0-36.86 28.39-66.82 63.2-66.82h768.75c34.82 0 63.05 29.96 63.05 66.82V322.46H607.86l0.03-108.27zM480.04 389.6h63.92v-134.33h-63.92zM896.46 643.32H735.75v98.87c0 46.37-42.93 83.95-95.89 83.95H384.14c-52.96 0-95.89-37.58-95.89-83.95v-98.87H127.7c-34.81 0-63.2-29.97-63.2-66.84v-186.85h351.59l0.02 41.05c0 14.43 11.41 26.08 25.45 26.08h140.83l4.6-0.42c11.92-2.21 20.9-12.83 20.9-25.66l-0.03-41.05H959.5V576.48c0 36.87-28.23 66.84-63.04 66.84z m-224.64 0H352.18V733.8c0 13.91 14.31 25.18 31.96 25.18h255.72c17.65 0 31.96-11.27 31.96-25.18v-90.48z"  horiz-adv-x="1024" />

    
    <glyph glyph-name="xitongjiankong" unicode="&#58893;" d="M959.5 135.39V831.5h-895v-696.11h397.78v-99.44H263.39c-27.46 0-49.72-22.26-49.72-49.72 0-25.5 19.19-46.52 43.92-49.39l5.8-0.33h497.22c27.46 0 49.72 22.26 49.72 49.72s-22.26 49.72-49.72 49.72H561.72v99.44H959.5zM279.42 370.08l-0.4 0.26c-6.07-7.22-15.46-11.85-25.99-11.85-18.31 0-33.15 13.98-33.15 31.24 0 6.9 2.37 13.28 6.33 18.52l127.82 196.17 169.55-213.26 235.72 270c6.12 5.97 14.64 9.69 24.09 9.69 18.31 0 33.15-13.98 33.15-31.24 0-8.93-3.98-16.99-10.36-22.69l-285.1-320.91-164.1 206.45-77.56-132.38z"  horiz-adv-x="1024" />

    
    <glyph glyph-name="dingdanguanli" unicode="&#58894;" d="M618.89 751.37H405.08c-22.06 0-40.01 17.95-40.01 40.07 0 22.17 17.95 40.07 40.01 40.07h213.81c22.11 0 40.07-17.9 40.07-40.07-0.01-22.12-17.96-40.07-40.07-40.07M811.86 791.47h-99.51c0-51.65-41.86-93.5-93.45-93.5H405.1c-51.6 0-93.45 41.86-93.45 93.5h-99.51c-44.23 0-80.08-35.91-80.08-80.18v-694.65c0-44.23 35.85-80.13 80.08-80.13h599.72c44.23 0 80.08 35.91 80.08 80.13V711.28c0 44.28-35.85 80.19-80.08 80.19m-86.13-694.65H298.27c-14.74 0-26.75 11.95-26.75 26.69s12 26.75 26.75 26.75h427.46c14.74 0 26.75-12 26.75-26.75s-12.01-26.69-26.75-26.69m0 213.7H298.27c-14.74 0-26.75 11.95-26.75 26.75 0 14.79 12 26.75 26.75 26.75h427.46c14.74 0 26.75-11.95 26.75-26.75-0.01-14.8-12.01-26.75-26.75-26.75m0 213.75H298.27c-14.74 0-26.75 11.95-26.75 26.75 0 14.74 12 26.69 26.75 26.69h427.46c14.74 0 26.75-11.95 26.75-26.69-0.01-14.8-12.01-26.75-26.75-26.75"  horiz-adv-x="1024" />

    
    <glyph glyph-name="xitongshezhi" unicode="&#58895;" d="M512.15 209.07c-98.45 0-178.45 78.26-178.45 174.96-0.14 46.23 18.59 90.62 52.07 123.39 33.48 32.77 78.97 51.24 126.44 51.33 98.4 0 178.4-78.21 178.4-174.91-0.2-96.51-80.05-174.72-178.45-174.72v-0.05zM956.12 444.9c-3.48 19.08-22.23 38.55-41.77 42.76l-14.57 3.29c-35.45 10.45-65.45 33.7-83.88 64.99-18.62 31.6-24.15 68.92-15.46 104.36l4.57 13.41c5.87 18.6-1.74 44.21-17.01 56.95 0 0-13.72 11.33-52.21 33.12-38.63 21.69-55.19 27.75-55.19 27.75-18.79 6.73-45.1 0.29-58.82-14l-10.14-10.65c-26.77-24.92-62.41-38.77-99.44-38.64-37.22-0.09-73.03 13.88-99.89 38.98l-9.7 10.31c-13.57 14.29-40.03 20.63-58.87 14 0 0-16.81-6.05-55.39-27.75-38.63-21.99-52.21-33.32-52.21-33.32-15.22-12.59-22.82-37.97-16.96-56.76l4.18-13.56c8.64-35.38 3.13-72.64-15.41-104.21-18.45-31.52-48.71-54.88-84.43-65.18l-14.07-3.1c-19.24-4.36-38.19-23.58-41.77-42.76 0 0-3.18-17.19-3.18-60.87 0-43.68 3.18-60.87 3.18-60.87 3.48-19.27 22.23-38.55 41.77-42.76l13.72-3.1c35.82-10.28 66.13-33.72 84.53-65.38 19.24-32.83 23.87-70.22 15.46-104.36l-3.98-13.22c-5.87-18.6 1.74-44.21 17.01-56.95 0 0 13.72-11.33 52.21-33.12 38.63-21.79 55.24-27.75 55.24-27.75 18.75-6.73 45.1-0.29 58.82 14l9.6 10.12c55.93 52.13 144.11 52.09 199.98-0.1l9.6-10.17c13.52-14.24 39.98-20.58 58.82-13.95 0 0 16.81 6.05 55.44 27.75 38.58 21.79 52.11 33.12 52.11 33.12 15.26 12.54 22.87 38.16 17.01 56.95L800.84 108c-8.65 35.26-3.13 72.4 15.41 103.83 18.51 31.55 48.78 54.96 84.53 65.37l13.77 3.1c19.24 4.36 38.19 23.58 41.77 42.76 0 0 3.18 17.19 3.18 60.87-0.2 43.68-3.38 60.97-3.38 60.97z"  horiz-adv-x="1024" />

    
    <glyph glyph-name="daikuandengji" unicode="&#58896;" d="M955.58 248.16c-19.89 40.47-70.11 40.47-99.94 30.43l-71.6-16.46c-0.5-22.47-10.44-47.43-30.33-74.93-44.8-63.4-153.19-78.41-244.68-78.41-51.71 0-98.45 5.02-124.3 8.5-1.99 0-4.47 0.5-6.46 0.99-5.47 0.5-9.45 0.99-11.93 1.54-13.92 1.99-22.87 14.47-20.88 28.44 1.99 13.47 14.82 21.98 28.34 20.98 0.99-0.1 9.8-0.9 20.88-1.49 56.68-3.23 238.07-17.65 290.38 40.42 24.26 26.95 37.84 41.42 30.38 59.91-10.74 26.55-50.22 30.48-70.11 30.48H84.35c-9.89 0-19.84-9.94-19.84-19.99v-211.22c0-9.99 9.94-20.49 19.84-20.49C234.56-3.09 425-63.5 534.89-63.5h40.32c70.11 9.99 310.26 170.79 360.48 211.27 19.89 19.99 29.84 60.41 19.89 100.39zM611.48 354.02c89 0 144.69-19.49 164.58-57.43 43.26 55.94 69.61 126.39 69.61 202.77v0.5c0 183.32-148.17 331.65-330.65 331.65s-330.2-148.32-330.2-331.65c0-52.41 11.93-101.88 33.81-145.83h392.85zM465.3 677.66l26.35-64.44c7.46-19.99 14.92-39.93 23.37-59.42h1.99c7.96 19.99 15.91 39.98 23.37 59.42l26.35 64.44h58.17l-68.12-135.34h57.68v-28.99h-70.61v-25.95h70.61v-28.94h-70.61v-67.42h-57.73v67.42h-70.06v28.94h70.06v25.95h-70.06v28.99h56.68l-67.62 135.34h60.18z"  horiz-adv-x="1024" />

    
    <glyph glyph-name="shoukuandengji" unicode="&#58897;" d="M437.41 384.6c123.32 0 223.74 100.23 223.74 223.44S560.73 831.48 437.41 831.48c-123.42 0-223.79-100.23-223.79-223.44S313.99 384.6 437.41 384.6z m-47.75 367.58l25.14-61.65c7.22-18.99 14.44-37.99 22.45-57.03h1.89c7.62 19.39 15.23 38.43 22.85 57.03l25.14 61.65h56.01l-65.52-129.32h55.21v-27.74h-67.81v-24.71h67.81v-27.79h-67.81v-64.64h-55.61v64.64h-66.96V570.4h66.96v24.71h-66.96v27.74h54.47l-65.17 129.32h57.91zM885.42 532.36H699.97C667.06 418.4 562.11 334.92 437.4 334.92S207.63 418.4 174.78 532.36h-36.14c-40.77 0-74.13-33.21-74.13-73.98V10.5c0-40.67 33.36-73.98 74.13-73.98h746.79c40.77 0 74.08 33.31 74.08 73.98V458.38c-0.01 40.77-33.32 73.98-74.09 73.98zM698.47 135.15h-62.18c-13.89 0-24.84 10.94-24.84 24.81V187.3h87.03v-52.15z m0 76.96h-87.03v44.7h87.03v-44.7z m0 69.51h-87.03v27.3c0 13.92 10.95 24.86 24.84 24.86h62.18v-52.16z m99.43-146.47h-74.58v52.11h74.58v-52.11z m0 76.96h-74.58v44.7h74.58v-44.7z m0 69.51h-74.58v52.16h74.58v-52.16z m111.86-121.66c0-13.87-10.9-24.81-24.84-24.81h-62.18V187.3h87.03v-27.34z m0 52.15h-87.03v44.7h87.03v-44.7z m0 69.51h-87.03v52.16h62.18c13.94 0 24.84-10.94 24.84-24.86v-27.3z"  horiz-adv-x="1024" />

    
    <glyph glyph-name="tuichuquanping" unicode="&#58898;" d="M716.03 232.88H887.6c20.66 0 37.41 16.75 37.41 37.41 0 20.66-16.75 37.41-37.41 37.41H625.7c-2.46 0-4.91-0.26-7.33-0.74-1.09-0.22-2.1-0.63-3.15-0.93-1.28-0.38-2.58-0.67-3.83-1.19-1.23-0.51-2.34-1.21-3.51-1.84-0.98-0.53-2-0.97-2.94-1.59-4.1-2.74-7.62-6.26-10.36-10.36-0.61-0.91-1.03-1.9-1.55-2.86-0.65-1.18-1.37-2.33-1.89-3.58-0.51-1.23-0.8-2.51-1.17-3.78-0.32-1.07-0.73-2.1-0.95-3.2-0.48-2.42-0.74-4.87-0.74-7.33v-261.9c0-20.66 16.75-37.41 37.41-37.41 20.66 0 37.41 16.75 37.41 37.41V179.97l232.51-232.51c7.3-7.31 16.88-10.96 26.45-10.96s19.15 3.65 26.45 10.96c14.61 14.61 14.61 38.3 0 52.91L716.03 232.88zM434.02 280.82c-0.37 1.27-0.66 2.55-1.17 3.78-0.52 1.26-1.24 2.4-1.89 3.58-0.52 0.95-0.94 1.94-1.55 2.86-2.74 4.1-6.26 7.62-10.36 10.36-0.94 0.63-1.97 1.07-2.95 1.6-1.15 0.63-2.26 1.33-3.49 1.84-1.25 0.52-2.56 0.82-3.85 1.19-1.05 0.31-2.05 0.72-3.14 0.93-2.42 0.48-4.87 0.74-7.33 0.74H136.4c-20.66 0-37.41-16.75-37.41-37.41 0-20.66 16.75-37.41 37.41-37.41h171.58L75.46 0.37c-14.61-14.61-14.61-38.3 0-52.91 7.3-7.31 16.88-10.96 26.45-10.96s19.15 3.65 26.45 10.96l232.51 232.51V8.4c0-20.66 16.75-37.41 37.41-37.41 20.66 0 37.41 16.75 37.41 37.41V270.3c0 2.46-0.26 4.91-0.74 7.33-0.2 1.1-0.62 2.12-0.93 3.19zM589.98 487.18c0.37-1.27 0.66-2.55 1.17-3.78 0.52-1.26 1.24-2.4 1.89-3.58 0.52-0.95 0.94-1.94 1.55-2.86 2.74-4.1 6.26-7.62 10.37-10.37 0.93-0.62 1.93-1.04 2.9-1.57 1.17-0.64 2.3-1.35 3.55-1.87 1.23-0.51 2.52-0.8 3.79-1.18 1.07-0.31 2.09-0.73 3.19-0.95 2.42-0.48 4.87-0.74 7.33-0.74h261.9c20.66 0 37.41 16.75 37.41 37.41 0 20.66-16.75 37.41-37.41 37.41H716.03l232.51 232.51c14.61 14.61 14.61 38.3 0 52.91-14.6 14.61-38.31 14.61-52.91 0L663.12 588.03V759.6c0 20.66-16.75 37.41-37.41 37.41-20.66 0-37.41-16.75-37.41-37.41v-261.9c0-2.46 0.26-4.91 0.74-7.33 0.21-1.1 0.63-2.12 0.94-3.19zM398.29 797.02c-20.66 0-37.41-16.75-37.41-37.41v-171.58L128.37 820.54c-14.6 14.61-38.31 14.61-52.91 0-14.61-14.61-14.61-38.3 0-52.91l232.51-232.51H136.4c-20.66 0-37.41-16.75-37.41-37.41 0-20.66 16.75-37.41 37.41-37.41h261.9c2.46 0 4.91 0.26 7.33 0.74 1.1 0.22 2.13 0.63 3.19 0.95 1.27 0.37 2.56 0.67 3.79 1.18 1.24 0.52 2.37 1.23 3.55 1.87 0.97 0.53 1.97 0.95 2.9 1.57 4.1 2.74 7.62 6.26 10.37 10.37 0.61 0.91 1.03 1.9 1.55 2.86 0.65 1.18 1.37 2.33 1.89 3.58 0.51 1.23 0.8 2.51 1.17 3.78 0.32 1.07 0.73 2.1 0.95 3.2 0.48 2.42 0.74 4.87 0.74 7.33V759.6c-0.02 20.67-16.78 37.42-37.44 37.42z"  horiz-adv-x="1024" />

    
    <glyph glyph-name="favicon" unicode="&#58899;" d="M860.22 560.32l26.46-26.46c-56.19-98.34-155.81-148.43-246.41-208.53 0 0 2.9-2.74 7.97-7.52 29.48-27.87 132.44-125.34 164.38-157.74l-13.2-13.19-189.11 183.58c110.98 67.46 233.18 153.99 249.91 229.86z m48.77-48.88c-77.4-94.7-151.79-139.19-233.24-185.66L829.5 176.95l75.91 75.92c70.91 70.9 72.1 186.17 3.58 258.57zM776.63 124.08H607.01L485.08 242.61l-88.21-22.26 0.8 18.68 70.53 19.84-9.63 9.63-73.31-23.47V126.5H244.98l135.89-135.89c72.12-72.12 190.15-72.12 262.26 0l133.5 133.47zM283.63 680.17l97.24 97.24c72.12 72.12 190.15 72.12 262.26 0L748.5 672.04c-117.15 31.9-277.91 38.26-464.87 8.13M118.6 515.13l90.68 90.69c288.73 54.36 449.96 25.21 463.33-40.36-1.74-91.37-151.05-200.66-448.81-291.45v-126.37L118.6 252.87c-72.13 72.12-72.13 190.14 0 262.26"  horiz-adv-x="1024" />

    
    <glyph glyph-name="tuibaodengji" unicode="&#58900;" d="M325.73 283.31V484.69c0 54.15 44.05 98.2 98.2 98.2h200.13V730.32c0 55.89-45.3 101.18-101.14 101.18H178.36c-55.89 0-101.23-45.3-101.23-101.18v-692.63c0-55.89 45.35-101.18 101.23-101.18h344.58c55.84 0 101.14 45.3 101.14 101.18V185.11H423.93c-54.14 0-98.2 44.06-98.2 98.2zM942.18 395.65L752.49 592.8c-10.49 10.94-28.94 3.48-28.94-11.64v-48H424c-26.8 0-48.53-21.73-48.53-48.48V283.3c0-26.8 21.73-48.48 48.53-48.48h299.55v-48.02c0-15.12 18.45-22.52 28.94-11.64l189.69 197.15c6.26 6.54 6.26 16.83 0 23.34z"  horiz-adv-x="1024" />

    
    <glyph glyph-name="quanping" unicode="&#58901;" d="M191.82 756.92h171.02c20.59 0 37.29 16.7 37.29 37.29s-16.7 37.29-37.29 37.29H101.79c-2.45 0-4.89-0.26-7.31-0.74-1.09-0.22-2.09-0.62-3.14-0.93-1.28-0.37-2.58-0.67-3.82-1.18-1.23-0.51-2.34-1.21-3.49-1.84-0.98-0.53-1.99-0.96-2.93-1.59-4.09-2.73-7.6-6.24-10.33-10.33-0.61-0.91-1.03-1.9-1.55-2.85-0.65-1.18-1.36-2.32-1.88-3.57-0.51-1.22-0.8-2.5-1.17-3.76-0.32-1.07-0.73-2.09-0.95-3.19-0.48-2.41-0.74-4.85-0.74-7.3v-261.04c0-20.59 16.7-37.29 37.29-37.29s37.29 16.7 37.29 37.29v171l231.75-231.75c7.27-7.28 16.82-10.93 26.37-10.93s19.09 3.64 26.37 10.93c14.57 14.56 14.57 38.17 0 52.73L191.82 756.92zM958.76 801.51c-0.22 1.11-0.63 2.13-0.95 3.19-0.37 1.26-0.66 2.54-1.17 3.76-0.52 1.25-1.23 2.39-1.88 3.57-0.52 0.95-0.94 1.94-1.55 2.85-2.73 4.09-6.24 7.6-10.33 10.33-0.94 0.63-1.96 1.06-2.94 1.6-1.15 0.63-2.26 1.32-3.48 1.83-1.25 0.52-2.55 0.81-3.83 1.19-1.05 0.31-2.05 0.71-3.13 0.93-2.41 0.48-4.86 0.74-7.31 0.74H661.17c-20.59 0-37.29-16.7-37.29-37.29s16.7-37.29 37.29-37.29h171.02L600.43 525.16c-14.57-14.56-14.57-38.17 0-52.73 7.27-7.28 16.82-10.93 26.37-10.93 9.54 0 19.09 3.64 26.37 10.93l231.75 231.75v-171.02c0-20.59 16.7-37.29 37.29-37.29s37.29 16.7 37.29 37.29V794.21c0 2.45-0.26 4.89-0.74 7.3zM370.84 295.57L139.08 63.82V234.83c0 20.59-16.7 37.29-37.29 37.29s-37.29-16.7-37.29-37.29v-261.04c0-2.45 0.26-4.89 0.74-7.3 0.22-1.11 0.63-2.13 0.95-3.19 0.37-1.26 0.66-2.54 1.17-3.76 0.52-1.25 1.23-2.39 1.88-3.57 0.52-0.95 0.94-1.94 1.55-2.85 2.73-4.09 6.24-7.6 10.33-10.33 0.92-0.62 1.92-1.04 2.89-1.57 1.17-0.64 2.29-1.35 3.53-1.86 1.23-0.51 2.51-0.8 3.78-1.17 1.06-0.31 2.08-0.72 3.18-0.94 2.41-0.48 4.85-0.74 7.3-0.74h261.04c20.59 0 37.29 16.7 37.29 37.29s-16.7 37.29-37.29 37.29H191.82l231.75 231.75c14.57 14.56 14.57 38.17 0 52.73-14.55 14.57-38.19 14.57-52.73 0zM922.21 272.12c-20.59 0-37.29-16.7-37.29-37.29v-171.02L653.16 295.57c-14.55 14.57-38.18 14.57-52.73 0-14.57-14.56-14.57-38.17 0-52.73l231.75-231.75H661.17c-20.59 0-37.29-16.7-37.29-37.29s16.7-37.29 37.29-37.29h261.04c2.45 0 4.89 0.26 7.3 0.74 1.1 0.22 2.12 0.63 3.18 0.94 1.27 0.37 2.55 0.66 3.78 1.17 1.24 0.51 2.36 1.22 3.53 1.86 0.96 0.53 1.96 0.95 2.89 1.57 4.09 2.73 7.6 6.24 10.33 10.33 0.61 0.91 1.03 1.9 1.55 2.85 0.65 1.18 1.36 2.32 1.88 3.57 0.51 1.22 0.8 2.5 1.17 3.76 0.32 1.07 0.73 2.09 0.95 3.19 0.48 2.41 0.74 4.85 0.74 7.3V234.83c-0.01 20.6-16.71 37.29-37.3 37.29z"  horiz-adv-x="1024" />

    
    <glyph glyph-name="zifangguanli" unicode="&#58902;" d="M959.5 594.92L656.31 831.49l-218.23-93.18-0.71 0.61-130.57-56.18 0.36-0.33-242.62-103.6v-93.62l303.14-236.57 189.56 80.93v-29.43l-186.42-79.61-248.6 193.91 21.33 9.1-27.35 21.28-51.7-22.07v-93.57l64.22-50.12-12.51 9.74L64.5 266.7v-93.57l303.19-236.62 591.76 252.73v93.62l-51.71 40.32-30.38-12.98 24.36-19.04-207.46-88.58v29.43l265.19 113.25v93.62l-51.7 40.32 51.75 22.09v93.63zM653.13 797.18l248.65-193.96L696 515.36l-25.54 22.07 173.53 74.1-193.96 151.36-160.91-68.71-25.53 22.06 189.54 80.94z m8.19-120.1l-3.88 21.28 17.05 10.44 4.23-47.03 16.81 10.29 5.22-7.46-20.68-12.68 4.62-6.66 20.68 12.68 5.17-7.51-20.63-12.63 12.08-17.4-17-10.34-12.08 17.4-20.43-12.48-5.22 7.46 20.48 12.48-4.62 6.66-20.43-12.53-5.22 7.51 16.61 10.14-44.05 22.67 17.7 10.79 19.19-11.88c5.77-3.78 11.49-7.56 17.5-11.19l0.6 0.35c-1.36 6.66-2.56 13.17-3.7 19.64z m-539.1-106.62l209.71 89.55 24.76-22.39-176.7-75.45 193.96-151.35 158.61 67.73 24.76-22.4-186.45-79.61-248.65 193.92z m291.35-81.13l-16.95-10.34-12.08 17.4-20.43-12.53-5.17 7.51 20.43 12.48-4.62 6.66-20.43-12.48-5.22 7.41 16.61 10.19-44 22.67 17.65 10.79 19.19-11.88c5.77-3.83 11.49-7.56 17.5-11.19l0.6 0.35c-1.29 6.66-2.59 13.18-3.68 19.64l-3.88 21.28 17.05 10.44 4.23-47.03 16.81 10.29 5.22-7.51-20.68-12.63 4.67-6.66L417 526.87l5.17-7.51-20.68-12.63 12.08-17.4z m143.67-345.25l-186.42-79.59-248.6 193.91 21.3 9.09 224.16-174.94 189.55 80.95v-29.42z m344.49 303.16l-207.46-88.6v29.42l187.77 80.17-4.68-2 24.37-18.99z"  horiz-adv-x="1024" />

    
    <glyph glyph-name="qiyerenzheng" unicode="&#58903;" d="M561.71 5.61c-31.82 41.88-50.22 94.35-50.22 150.85 0 83.25 39.78 156.91 101.43 202.31h-91.98v50.45h298.33v-8.07c20.88-4.54 40.27-12.61 58.67-22.2V661.49L462.27 812.84v-706.33h-49.72V510.13H146.04v-504.52H64.5v-50.45h546.93c-19.39 13.62-36.29 30.77-49.72 50.45z m-40.77 605.43h298.33v-50.45H520.94v50.45zM351.89 156.96H206.16v50.45h145.73v-50.45z m0 201.81H206.16v50.45h145.73v-50.45zM760.32 358.07c-110.03 0-199.23-90.21-199.23-201.46s89.2-201.46 199.23-201.46c109.98 0 199.18 90.21 199.18 201.46s-89.2 201.46-199.18 201.46z m119.53-156.86L756.74 76.34c-9.7-9.84-25.41-9.84-35.15 0l-70.31 71.34c-9.7 9.89-9.7 25.83 0 35.67 9.75 9.89 25.46 9.89 35.15 0l52.75-53.48 105.51 107.01c9.7 9.84 25.46 9.84 35.15 0 9.7-9.84 9.7-25.83 0.01-35.67z"  horiz-adv-x="1024" />

    
    <glyph glyph-name="qudaoguanli" unicode="&#58904;" d="M908.46 382.51c0 31.72-79.59 85.98-228.61 110.76 3.52-35.43 5.6-72.45 5.6-110.76s-2.08-75.33-5.6-110.76c149.02 24.78 228.61 79.04 228.61 110.76zM290.11 532.54c0.21 39.95 31.89 72.54 71.87 73.82C390.13 740.06 444.83 830.64 509 831.5 262.67 828.21 65.68 625.85 68.97 379.57c-0.85 64.17 88.29 121.27 221.14 152.97zM958.01 382.51s0 0.01 0 0c0 0.01 0 0.01 0 0C958 628.86 758.34 828.52 511.99 828.52c73.64 0 136.38-118.1 161.56-284.46C839.91 518.88 958 456.15 958.01 382.51c-0.01-73.64-118.1-136.37-284.46-161.55C648.37 54.6 585.64-63.49 512-63.5c-73.64 0.01-136.37 118.1-161.55 284.46-166.36 25.18-284.46 87.92-284.46 161.56 0-246.35 199.66-446.01 446-446.02h0.02c246.33 0.01 445.99 199.66 446 446.01 0-0.01 0-0.01 0 0 0-0.01 0 0 0 0zM305.17 485.46c-123.5-27.11-189.61-74.19-189.61-102.93 0-31.72 79.59-85.98 228.61-110.81-3.57 35.48-5.6 72.45-5.6 110.81 0 26.71 1.29 52.53 3.07 77.9-14.61 4.51-27.25 13.28-36.47 25.03zM401.24 214.66C426.07 65.64 480.28-13.95 512-13.95s85.93 79.59 110.76 228.61c-35.43-3.52-72.45-5.6-110.76-5.6s-75.33 2.08-110.76 5.6zM635.9 382.53c0 42.47-2.43 81.52-6.39 117.5-36.03 3.96-74.98 6.39-117.5 6.39-28.3 0-54.56-1.39-79.89-3.27-7.58-18.48-22.3-33.2-40.79-40.74-1.88-25.37-3.22-51.59-3.22-79.89 0-42.52 2.43-81.52 6.39-117.55 35.98-3.96 74.98-6.34 117.5-6.34 42.52 0 81.47 2.38 117.5 6.34 3.97 36.04 6.4 75.04 6.4 117.56zM512 778.97c-28.74 0-75.87-66.16-102.93-189.61 11.75-9.22 20.52-21.85 25.03-36.52 25.32 1.83 51.19 3.12 77.9 3.12 38.31 0 75.33-2.08 110.76-5.6C597.93 699.38 543.72 778.97 512 778.97z"  horiz-adv-x="1024" />

    


  </font>
</defs>
</svg>
